<svg width="16" height="16" viewBox="0 0 16 16" fill="none" xmlns="http://www.w3.org/2000/svg">
<path d="M6.78022 12.6667C6.87981 12.667 6.97822 12.645 7.06821 12.6024C7.15819 12.5597 7.23747 12.4974 7.30022 12.42L10.5202 8.42002C10.6183 8.30073 10.6719 8.1511 10.6719 7.99669C10.6719 7.84227 10.6183 7.69264 10.5202 7.57335L7.18688 3.57335C7.07372 3.43721 6.91112 3.35159 6.73483 3.33534C6.55855 3.31909 6.38303 3.37353 6.24688 3.48669C6.11074 3.59985 6.02512 3.76245 6.00887 3.93874C5.99262 4.11502 6.04706 4.29054 6.16022 4.42669L9.14022 8.00002L6.26022 11.5734C6.17869 11.6712 6.12691 11.7904 6.11099 11.9167C6.09507 12.0431 6.11568 12.1714 6.17039 12.2864C6.22509 12.4014 6.3116 12.4984 6.41967 12.5658C6.52774 12.6332 6.65286 12.6682 6.78022 12.6667Z" fill="url(#paint0_linear_187_21587)"/>
<defs>
<linearGradient id="paint0_linear_187_21587" x1="10.6719" y1="4.54597" x2="5.84442" y2="4.67956" gradientUnits="userSpaceOnUse">
<stop stop-color="#1FA2FF"/>
<stop offset="0.515625" stop-color="#12D8FA"/>
<stop offset="1" stop-color="#A6FFCB"/>
</linearGradient>
</defs>
</svg>
