<svg width="16" height="16" viewBox="0 0 16 16" fill="none" xmlns="http://www.w3.org/2000/svg">
<path d="M6.78022 12.6667C6.87981 12.667 6.97822 12.645 7.06821 12.6023C7.15819 12.5596 7.23747 12.4973 7.30022 12.42L10.5202 8.41999C10.6183 8.3007 10.6719 8.15107 10.6719 7.99666C10.6719 7.84224 10.6183 7.69261 10.5202 7.57332L7.18688 3.57332C7.07372 3.43718 6.91112 3.35156 6.73483 3.33531C6.55855 3.31906 6.38303 3.3735 6.24688 3.48666C6.11074 3.59982 6.02512 3.76242 6.00887 3.93871C5.99262 4.11499 6.04706 4.29051 6.16022 4.42666L9.14022 7.99999L6.26022 11.5733C6.17869 11.6712 6.12691 11.7903 6.11099 11.9167C6.09507 12.0431 6.11568 12.1714 6.17039 12.2864C6.22509 12.4014 6.3116 12.4983 6.41967 12.5657C6.52774 12.6331 6.65286 12.6681 6.78022 12.6667Z" fill="#180269"/>
</svg>
