<svg width="14" height="14" viewBox="0 0 14 14" fill="none" xmlns="http://www.w3.org/2000/svg">
<path d="M7.00008 10.3333C6.86378 10.3336 6.73169 10.2861 6.62675 10.1992L3.12675 7.2825C3.00762 7.18348 2.93271 7.0412 2.91848 6.88695C2.90426 6.7327 2.9519 6.57912 3.05091 6.46C3.14993 6.34087 3.29221 6.26596 3.44646 6.25174C3.60071 6.23751 3.75429 6.28515 3.87341 6.38416L7.00008 8.9975L10.1267 6.4775C10.1864 6.42904 10.2551 6.39286 10.3288 6.37102C10.4025 6.34919 10.4798 6.34213 10.5562 6.35026C10.6326 6.3584 10.7067 6.38155 10.7741 6.4184C10.8416 6.45525 10.9011 6.50507 10.9492 6.565C11.0027 6.62498 11.0431 6.69534 11.0681 6.77169C11.0931 6.84803 11.102 6.9287 11.0943 7.00866C11.0866 7.08861 11.0625 7.16612 11.0235 7.23633C10.9845 7.30654 10.9314 7.36793 10.8676 7.41666L7.36758 10.2342C7.25961 10.3074 7.13022 10.3423 7.00008 10.3333V10.3333Z" fill="#180269"/>
</svg>
