<svg width="324" height="387" viewBox="0 0 324 387" fill="none" xmlns="http://www.w3.org/2000/svg">
<g opacity="0.4">
<path opacity="0.6" d="M236.403 3.94995L131.563 21.2589L46.6121 76.6779L3.87109 192.678L55.2666 325.988L165.194 382.469L263.354 367.742L354.453 309.742L398.181 191.691L347.317 60.4318L236.403 3.94995Z" stroke="white" stroke-width="0.8601" stroke-miterlimit="10"/>
<path opacity="0.6" d="M165.194 382.47L128.07 344.815L123.971 223.728L153.502 102.11L131.563 21.2589L45.6252 130.655L3.87109 192.678L43.5754 256.296L128.07 344.815L263.354 367.742L342.231 261.914L347.317 136.196V60.4318" stroke="white" stroke-width="0.8601" stroke-miterlimit="10"/>
<path opacity="0.6" d="M46.6128 76.678L45.6259 130.655L43.5762 256.296L55.2673 325.988" stroke="white" stroke-width="0.8601" stroke-miterlimit="10"/>
<path opacity="0.6" d="M236.404 3.94995L258.8 47.1464L256.218 172.333L228.812 292.433L263.354 367.742" stroke="white" stroke-width="0.8601" stroke-miterlimit="10"/>
<path opacity="0.6" d="M131.26 21.2589L259.103 47.3742L347.318 60.4318" stroke="white" stroke-width="0.8601" stroke-miterlimit="10"/>
<path opacity="0.6" d="M45.7012 131.11L152.971 101.958L259.102 47.3742L347.014 135.893L397.878 191.54L342.231 261.914" stroke="white" stroke-width="0.8601" stroke-miterlimit="10"/>
<path opacity="0.6" d="M45.3223 131.11L123.44 223.728L228.281 292.433" stroke="white" stroke-width="0.8601" stroke-miterlimit="10"/>
<path opacity="0.6" d="M354.455 310.197L342.232 261.383L255.763 171.801L153.504 101.654" stroke="white" stroke-width="0.8601" stroke-miterlimit="10"/>
<path opacity="0.6" d="M347.318 136.728L256.218 172.333L123.44 223.728L43.0449 256.828" stroke="white" stroke-width="0.8601" stroke-miterlimit="10"/>
<path opacity="0.6" d="M55.2676 325.988L127.54 344.284L227.75 292.433L342.232 261.914" stroke="white" stroke-width="0.8601" stroke-miterlimit="10"/>
<g opacity="0.6">
<path opacity="0.6" d="M260.241 172.333C260.241 174.534 258.495 176.28 256.293 176.28C254.092 176.28 252.346 174.534 252.346 172.333C252.346 170.131 254.092 168.385 256.293 168.385C258.419 168.385 260.241 170.131 260.241 172.333Z" fill="white"/>
<path opacity="0.6" d="M267.378 367.438C267.378 369.64 265.632 371.386 263.43 371.386C261.229 371.386 259.482 369.564 259.482 367.438C259.482 365.236 261.229 363.49 263.43 363.49C265.556 363.49 267.378 365.236 267.378 367.438Z" fill="white"/>
<path opacity="0.6" d="M232.761 291.901C232.761 294.103 231.014 295.849 228.813 295.849C226.611 295.849 224.865 294.103 224.865 291.901C224.865 289.7 226.611 287.953 228.813 287.953C230.939 287.953 232.761 289.7 232.761 291.901Z" fill="white"/>
<path opacity="0.6" d="M132.018 344.587C132.018 346.789 130.272 348.535 128.071 348.535C125.869 348.535 124.123 346.713 124.123 344.587C124.123 342.386 125.869 340.64 128.071 340.64C130.196 340.564 132.018 342.386 132.018 344.587Z" fill="white"/>
<path opacity="0.6" d="M168.155 382.242C168.155 384.443 166.409 386.189 164.207 386.189C162.006 386.189 160.26 384.367 160.26 382.242C160.26 380.04 162.006 378.294 164.207 378.294C166.333 378.218 168.155 380.04 168.155 382.242Z" fill="white"/>
<path opacity="0.6" d="M58.4559 326.519C58.4559 328.721 56.7098 330.467 54.5082 330.467C52.3066 330.467 50.5605 328.645 50.5605 326.519C50.5605 324.317 52.3066 322.571 54.5082 322.571C56.7098 322.495 58.4559 324.317 58.4559 326.519Z" fill="white"/>
<path opacity="0.6" d="M47.5242 256.524C47.5242 258.726 45.7781 260.472 43.5766 260.472C41.375 260.472 39.6289 258.726 39.6289 256.524C39.6289 254.322 41.375 252.576 43.5766 252.576C45.7781 252.576 47.5242 254.322 47.5242 256.524Z" fill="white"/>
<path opacity="0.6" d="M7.89531 192.678C7.89531 194.88 6.14923 196.626 3.94765 196.626C1.74608 196.626 0 194.804 0 192.678C0 190.477 1.74608 188.731 3.94765 188.731C6.07332 188.731 7.89531 190.477 7.89531 192.678Z" fill="white"/>
<path opacity="0.6" d="M49.8777 131.11C49.8777 133.312 48.1317 135.058 45.9301 135.058C43.7285 135.058 41.9824 133.312 41.9824 131.11C41.9824 128.908 43.7285 127.162 45.9301 127.162C48.0557 127.162 49.8777 128.908 49.8777 131.11Z" fill="white"/>
<path opacity="0.6" d="M50.3328 76.6779C50.3328 78.8795 48.5867 80.6256 46.3852 80.6256C44.1836 80.6256 42.4375 78.8795 42.4375 76.6779C42.4375 74.4764 44.1836 72.7303 46.3852 72.7303C48.5867 72.7303 50.3328 74.4764 50.3328 76.6779Z" fill="white"/>
<path opacity="0.6" d="M135.587 21.2589C135.587 23.4605 133.841 25.2066 131.639 25.2066C129.437 25.2066 127.691 23.4605 127.691 21.2589C127.691 19.0573 129.437 17.3112 131.639 17.3112C133.765 17.2353 135.587 19.0573 135.587 21.2589Z" fill="white"/>
<path opacity="0.6" d="M157.45 101.882C157.45 104.084 155.704 105.83 153.502 105.83C151.301 105.83 149.555 104.084 149.555 101.882C149.555 99.6806 151.301 97.9345 153.502 97.9345C155.704 97.8586 157.45 99.6806 157.45 101.882Z" fill="white"/>
<path opacity="0.6" d="M127.919 223.652C127.919 225.854 126.173 227.6 123.971 227.6C121.77 227.6 120.023 225.854 120.023 223.652C120.023 221.451 121.77 219.705 123.971 219.705C126.173 219.629 127.919 221.451 127.919 223.652Z" fill="white"/>
<path opacity="0.6" d="M263.354 47.7538C263.354 49.9554 261.608 51.7014 259.407 51.7014C257.205 51.7014 255.459 49.9554 255.459 47.7538C255.459 45.5522 257.205 43.8061 259.407 43.8061C261.532 43.7302 263.354 45.5522 263.354 47.7538Z" fill="white"/>
<path opacity="0.6" d="M240.352 3.94994C240.352 6.15152 238.606 7.89761 236.405 7.89761C234.203 7.89761 232.457 6.15152 232.457 3.94994C232.457 1.74837 234.203 0.00228979 236.405 0.00228979C238.606 -0.0736267 240.352 1.74837 240.352 3.94994Z" fill="white"/>
</g>
</g>
</svg>
