<svg width="70" height="70" viewBox="0 0 70 70" fill="none" xmlns="http://www.w3.org/2000/svg">
<path d="M65.45 36.3344L58.8875 21.0219C58.72 20.6265 58.4399 20.2891 58.082 20.0518C57.7242 19.8146 57.3044 19.6878 56.875 19.6875H50.3125V15.3125C50.3125 14.7323 50.082 14.1759 49.6718 13.7657C49.2616 13.3555 48.7052 13.125 48.125 13.125H6.5625C5.98234 13.125 5.42594 13.3555 5.0157 13.7657C4.60547 14.1759 4.375 14.7323 4.375 15.3125V52.5C4.375 53.0802 4.60547 53.6366 5.0157 54.0468C5.42594 54.457 5.98234 54.6875 6.5625 54.6875H11.2437C11.7475 56.5411 12.8472 58.1775 14.3732 59.3441C15.8992 60.5107 17.7666 61.1428 19.6875 61.1428C21.6084 61.1428 23.4758 60.5107 25.0018 59.3441C26.5278 58.1775 27.6275 56.5411 28.1312 54.6875H41.8687C42.3725 56.5411 43.4722 58.1775 44.9982 59.3441C46.5242 60.5107 48.3916 61.1428 50.3125 61.1428C52.2334 61.1428 54.1008 60.5107 55.6268 59.3441C57.1528 58.1775 58.2525 56.5411 58.7563 54.6875H63.4375C64.0177 54.6875 64.5741 54.457 64.9843 54.0468C65.3945 53.6366 65.625 53.0802 65.625 52.5V37.1875C65.6244 36.8943 65.5649 36.6041 65.45 36.3344ZM50.3125 24.0625H55.4313L60.1125 35H50.3125V24.0625ZM19.6875 56.875C18.8222 56.875 17.9763 56.6184 17.2569 56.1377C16.5374 55.6569 15.9767 54.9737 15.6455 54.1742C15.3144 53.3748 15.2278 52.4951 15.3966 51.6465C15.5654 50.7978 15.9821 50.0183 16.5939 49.4064C17.2058 48.7946 17.9853 48.3779 18.834 48.2091C19.6826 48.0403 20.5623 48.1269 21.3617 48.458C22.1612 48.7892 22.8444 49.3499 23.3252 50.0694C23.8059 50.7888 24.0625 51.6347 24.0625 52.5C24.0625 53.6603 23.6016 54.7731 22.7811 55.5936C21.9606 56.4141 20.8478 56.875 19.6875 56.875ZM41.8687 50.3125H28.1312C27.6275 48.4589 26.5278 46.8225 25.0018 45.6559C23.4758 44.4893 21.6084 43.8572 19.6875 43.8572C17.7666 43.8572 15.8992 44.4893 14.3732 45.6559C12.8472 46.8225 11.7475 48.4589 11.2437 50.3125H8.75V17.5H45.9375V44.975C44.9414 45.5531 44.0692 46.3222 43.371 47.2381C42.6728 48.1541 42.1623 49.1988 41.8687 50.3125ZM50.3125 56.875C49.4472 56.875 48.6013 56.6184 47.8819 56.1377C47.1624 55.6569 46.6017 54.9737 46.2705 54.1742C45.9394 53.3748 45.8528 52.4951 46.0216 51.6465C46.1904 50.7978 46.6071 50.0183 47.2189 49.4064C47.8308 48.7946 48.6103 48.3779 49.459 48.2091C50.3076 48.0403 51.1873 48.1269 51.9867 48.458C52.7862 48.7892 53.4694 49.3499 53.9502 50.0694C54.4309 50.7888 54.6875 51.6347 54.6875 52.5C54.6875 53.6603 54.2266 54.7731 53.4061 55.5936C52.5856 56.4141 51.4728 56.875 50.3125 56.875ZM61.25 50.3125H58.7563C58.2725 48.439 57.1814 46.7786 55.6536 45.5912C54.1258 44.4038 52.2475 43.7563 50.3125 43.75V39.375H61.25V50.3125Z" fill="url(#paint0_linear_187_18959)"/>
<defs>
<linearGradient id="paint0_linear_187_18959" x1="4.375" y1="19.3673" x2="67.4805" y2="23.8238" gradientUnits="userSpaceOnUse">
<stop stop-color="#1FA2FF"/>
<stop offset="0.515625" stop-color="#12D8FA"/>
<stop offset="1" stop-color="#A6FFCB"/>
</linearGradient>
</defs>
</svg>
