<svg width="70" height="70" viewBox="0 0 70 70" fill="none" xmlns="http://www.w3.org/2000/svg">
<g clip-path="url(#clip0_187_19515)">
<path d="M35.0001 47.9357C26.6368 47.9357 19.8336 41.1318 19.8336 32.7691C19.8336 24.4064 26.6368 17.6025 35.0001 17.6025C43.3635 17.6025 50.1667 24.4064 50.1667 32.7691C50.1667 41.1318 43.3635 47.9357 35.0001 47.9357ZM35.0001 19.9357C27.9239 19.9357 22.1667 25.6928 22.1667 32.7691C22.1667 39.846 27.9239 45.6025 35.0001 45.6025C42.0764 45.6025 47.8335 39.846 47.8335 32.7691C47.8335 25.6928 42.0764 19.9357 35.0001 19.9357Z" fill="url(#paint0_linear_187_19515)"/>
<path d="M31.2257 26.3223C31.2257 26.1988 31.3078 26.1181 31.4293 26.1181H36.5903C39.5289 26.1181 40.9155 27.5867 40.9155 29.8104C40.9155 31.3819 40.1812 32.2784 39.3046 32.7477V32.7891C40.1611 33.1156 41.1605 34.2177 41.1605 35.9107C41.1605 38.6644 39.4261 39.9902 36.3867 39.9902H31.4293C31.3078 39.9902 31.2257 39.9088 31.2257 39.7866V26.3223ZM36.5302 31.8906C37.7539 31.8906 38.5089 31.1569 38.5089 30.0761C38.5089 28.9739 37.7539 28.2389 36.5302 28.2389H33.7544C33.6737 28.2389 33.6329 28.2803 33.6329 28.3611V31.7691C33.6329 31.8498 33.6737 31.8906 33.7544 31.8906H36.5302ZM33.7544 37.8687H36.6517C37.9989 37.8687 38.7526 37.0929 38.7526 35.9307C38.7526 34.7878 37.9989 34.0121 36.6517 34.0121H33.7544C33.6737 34.0121 33.6329 34.0535 33.6329 34.1349V37.7458C33.6329 37.8279 33.6737 37.8687 33.7544 37.8687Z" fill="url(#paint1_linear_187_19515)"/>
<path d="M35.0001 28.1028C34.3559 28.1028 33.8332 27.5807 33.8332 26.9358V24.6027C33.8332 23.9578 34.3559 23.4358 35.0001 23.4358C35.6443 23.4358 36.1664 23.9578 36.1664 24.6027V26.9358C36.1664 27.5807 35.6443 28.1028 35.0001 28.1028Z" fill="url(#paint2_linear_187_19515)"/>
<path d="M35.0001 42.1024C34.3559 42.1024 33.8332 41.581 33.8332 40.9362V39.7692C33.8332 39.1244 34.3559 38.6023 35.0001 38.6023C35.6443 38.6023 36.1664 39.1244 36.1664 39.7692V40.9362C36.1664 41.581 35.6443 42.1024 35.0001 42.1024Z" fill="url(#paint3_linear_187_19515)"/>
<path d="M40.8334 14.1024H29.1669C28.5227 14.1024 28 13.5811 28 12.9362V1.26903C28 0.624157 28.5227 0.102783 29.1669 0.102783H40.8334C41.4776 0.102783 42.0003 0.624157 42.0003 1.26903V12.9362C42.0003 13.5811 41.4776 14.1024 40.8334 14.1024ZM30.3331 11.7693H39.6665V2.43595H30.3331V11.7693Z" fill="url(#paint4_linear_187_19515)"/>
<path d="M68.8334 14.1024H57.1669C56.5227 14.1024 55.9999 13.5811 55.9999 12.9362V1.26903C55.9999 0.624157 56.5227 0.102783 57.1669 0.102783H68.8334C69.4776 0.102783 70.0003 0.624157 70.0003 1.26903V12.9362C70.0003 13.5811 69.4776 14.1024 68.8334 14.1024ZM58.3331 11.7693H67.6664V2.43595H58.3331V11.7693Z" fill="url(#paint5_linear_187_19515)"/>
<path d="M12.8334 14.1024H1.16692C0.522041 14.1024 0 13.5811 0 12.9362V1.26903C0 0.624157 0.522041 0.102783 1.16692 0.102783H12.8334C13.4776 0.102783 14.0003 0.624157 14.0003 1.26903V12.9362C14.0003 13.5811 13.4776 14.1024 12.8334 14.1024ZM2.33316 11.7693H11.6665V2.43595H2.33316V11.7693Z" fill="url(#paint6_linear_187_19515)"/>
<path d="M63.0001 19.9357H7.00016C6.35595 19.9357 5.83324 19.4143 5.83324 18.7694V12.9362C5.83324 12.2913 6.35595 11.7693 7.00016 11.7693C7.64437 11.7693 8.16641 12.2913 8.16641 12.9362V17.6025H61.8332V12.9362C61.8332 12.2913 62.3559 11.7693 63.0001 11.7693C63.6443 11.7693 64.1664 12.2913 64.1664 12.9362V18.7694C64.1664 19.4143 63.6443 19.9357 63.0001 19.9357Z" fill="url(#paint7_linear_187_19515)"/>
<path d="M40.8334 65.4361H29.1669C28.5227 65.4361 28 64.914 28 64.2691V52.6026C28 51.9578 28.5227 51.4357 29.1669 51.4357H40.8334C41.4776 51.4357 42.0003 51.9578 42.0003 52.6026V64.2691C42.0003 64.914 41.4776 65.4361 40.8334 65.4361ZM30.3331 63.1029H39.6665V53.7696H30.3331V63.1029Z" fill="url(#paint8_linear_187_19515)"/>
<path d="M68.8334 65.4361H57.1669C56.5227 65.4361 55.9999 64.914 55.9999 64.2691V52.6026C55.9999 51.9578 56.5227 51.4357 57.1669 51.4357H68.8334C69.4776 51.4357 70.0003 51.9578 70.0003 52.6026V64.2691C70.0003 64.914 69.4776 65.4361 68.8334 65.4361ZM58.3331 63.1029H67.6664V53.7696H58.3331V63.1029Z" fill="url(#paint9_linear_187_19515)"/>
<path d="M12.8334 65.4361H1.16692C0.522041 65.4361 0 64.914 0 64.2691V52.6026C0 51.9578 0.522041 51.4357 1.16692 51.4357H12.8334C13.4776 51.4357 14.0003 51.9578 14.0003 52.6026V64.2691C14.0003 64.914 13.4776 65.4361 12.8334 65.4361ZM2.33316 63.1029H11.6665V53.7696H2.33316V63.1029Z" fill="url(#paint10_linear_187_19515)"/>
<path d="M63.0001 53.7696C62.3559 53.7696 61.8332 53.2475 61.8332 52.6026V47.9357H8.16641V52.6026C8.16641 53.2475 7.64437 53.7696 7.00016 53.7696C6.35595 53.7696 5.83324 53.2475 5.83324 52.6026V46.7694C5.83324 46.1245 6.35595 45.6025 7.00016 45.6025H63.0001C63.6443 45.6025 64.1664 46.1245 64.1664 46.7694V52.6026C64.1664 53.2475 63.6443 53.7696 63.0001 53.7696Z" fill="url(#paint11_linear_187_19515)"/>
<path d="M29.1669 8.26919H14.0003C13.3554 8.26919 12.8334 7.74782 12.8334 7.10294C12.8334 6.45807 13.3554 5.93603 14.0003 5.93603H29.1669C29.8111 5.93603 30.3331 6.45807 30.3331 7.10294C30.3331 7.74782 29.8111 8.26919 29.1669 8.26919Z" fill="url(#paint12_linear_187_19515)"/>
<path d="M57.166 8.26919H41.9995C41.3546 8.26919 40.8325 7.74782 40.8325 7.10294C40.8325 6.45807 41.3546 5.93603 41.9995 5.93603H57.166C57.8102 5.93603 58.3323 6.45807 58.3323 7.10294C58.3323 7.74782 57.8102 8.26919 57.166 8.26919Z" fill="url(#paint13_linear_187_19515)"/>
<path d="M29.1669 59.6028H14.0003C13.3554 59.6028 12.8334 59.0808 12.8334 58.4359C12.8334 57.791 13.3554 57.2696 14.0003 57.2696H29.1669C29.8111 57.2696 30.3331 57.791 30.3331 58.4359C30.3331 59.0808 29.8111 59.6028 29.1669 59.6028Z" fill="url(#paint14_linear_187_19515)"/>
<path d="M57.166 59.6028H41.9995C41.3546 59.6028 40.8325 59.0808 40.8325 58.4359C40.8325 57.791 41.3546 57.2696 41.9995 57.2696H57.166C57.8102 57.2696 58.3323 57.791 58.3323 58.4359C58.3323 59.0808 57.8102 59.6028 57.166 59.6028Z" fill="url(#paint15_linear_187_19515)"/>
</g>
<defs>
<linearGradient id="paint0_linear_187_19515" x1="-1.00689e-06" y1="8.59612" x2="72.2264" y2="12.8805" gradientUnits="userSpaceOnUse">
<stop stop-color="#1FA2FF"/>
<stop offset="0.515625" stop-color="#12D8FA"/>
<stop offset="1" stop-color="#A6FFCB"/>
</linearGradient>
<linearGradient id="paint1_linear_187_19515" x1="-1.00689e-06" y1="8.59612" x2="72.2264" y2="12.8805" gradientUnits="userSpaceOnUse">
<stop stop-color="#1FA2FF"/>
<stop offset="0.515625" stop-color="#12D8FA"/>
<stop offset="1" stop-color="#A6FFCB"/>
</linearGradient>
<linearGradient id="paint2_linear_187_19515" x1="-1.00689e-06" y1="8.59612" x2="72.2264" y2="12.8805" gradientUnits="userSpaceOnUse">
<stop stop-color="#1FA2FF"/>
<stop offset="0.515625" stop-color="#12D8FA"/>
<stop offset="1" stop-color="#A6FFCB"/>
</linearGradient>
<linearGradient id="paint3_linear_187_19515" x1="-1.00689e-06" y1="8.59612" x2="72.2264" y2="12.8805" gradientUnits="userSpaceOnUse">
<stop stop-color="#1FA2FF"/>
<stop offset="0.515625" stop-color="#12D8FA"/>
<stop offset="1" stop-color="#A6FFCB"/>
</linearGradient>
<linearGradient id="paint4_linear_187_19515" x1="-1.00689e-06" y1="8.59612" x2="72.2264" y2="12.8805" gradientUnits="userSpaceOnUse">
<stop stop-color="#1FA2FF"/>
<stop offset="0.515625" stop-color="#12D8FA"/>
<stop offset="1" stop-color="#A6FFCB"/>
</linearGradient>
<linearGradient id="paint5_linear_187_19515" x1="-1.00689e-06" y1="8.59612" x2="72.2264" y2="12.8805" gradientUnits="userSpaceOnUse">
<stop stop-color="#1FA2FF"/>
<stop offset="0.515625" stop-color="#12D8FA"/>
<stop offset="1" stop-color="#A6FFCB"/>
</linearGradient>
<linearGradient id="paint6_linear_187_19515" x1="-1.00689e-06" y1="8.59612" x2="72.2264" y2="12.8805" gradientUnits="userSpaceOnUse">
<stop stop-color="#1FA2FF"/>
<stop offset="0.515625" stop-color="#12D8FA"/>
<stop offset="1" stop-color="#A6FFCB"/>
</linearGradient>
<linearGradient id="paint7_linear_187_19515" x1="-1.00689e-06" y1="8.59612" x2="72.2264" y2="12.8805" gradientUnits="userSpaceOnUse">
<stop stop-color="#1FA2FF"/>
<stop offset="0.515625" stop-color="#12D8FA"/>
<stop offset="1" stop-color="#A6FFCB"/>
</linearGradient>
<linearGradient id="paint8_linear_187_19515" x1="-1.00689e-06" y1="8.59612" x2="72.2264" y2="12.8805" gradientUnits="userSpaceOnUse">
<stop stop-color="#1FA2FF"/>
<stop offset="0.515625" stop-color="#12D8FA"/>
<stop offset="1" stop-color="#A6FFCB"/>
</linearGradient>
<linearGradient id="paint9_linear_187_19515" x1="-1.00689e-06" y1="8.59612" x2="72.2264" y2="12.8805" gradientUnits="userSpaceOnUse">
<stop stop-color="#1FA2FF"/>
<stop offset="0.515625" stop-color="#12D8FA"/>
<stop offset="1" stop-color="#A6FFCB"/>
</linearGradient>
<linearGradient id="paint10_linear_187_19515" x1="-1.00689e-06" y1="8.59612" x2="72.2264" y2="12.8805" gradientUnits="userSpaceOnUse">
<stop stop-color="#1FA2FF"/>
<stop offset="0.515625" stop-color="#12D8FA"/>
<stop offset="1" stop-color="#A6FFCB"/>
</linearGradient>
<linearGradient id="paint11_linear_187_19515" x1="-1.00689e-06" y1="8.59612" x2="72.2264" y2="12.8805" gradientUnits="userSpaceOnUse">
<stop stop-color="#1FA2FF"/>
<stop offset="0.515625" stop-color="#12D8FA"/>
<stop offset="1" stop-color="#A6FFCB"/>
</linearGradient>
<linearGradient id="paint12_linear_187_19515" x1="-1.00689e-06" y1="8.59612" x2="72.2264" y2="12.8805" gradientUnits="userSpaceOnUse">
<stop stop-color="#1FA2FF"/>
<stop offset="0.515625" stop-color="#12D8FA"/>
<stop offset="1" stop-color="#A6FFCB"/>
</linearGradient>
<linearGradient id="paint13_linear_187_19515" x1="-1.00689e-06" y1="8.59612" x2="72.2264" y2="12.8805" gradientUnits="userSpaceOnUse">
<stop stop-color="#1FA2FF"/>
<stop offset="0.515625" stop-color="#12D8FA"/>
<stop offset="1" stop-color="#A6FFCB"/>
</linearGradient>
<linearGradient id="paint14_linear_187_19515" x1="-1.00689e-06" y1="8.59612" x2="72.2264" y2="12.8805" gradientUnits="userSpaceOnUse">
<stop stop-color="#1FA2FF"/>
<stop offset="0.515625" stop-color="#12D8FA"/>
<stop offset="1" stop-color="#A6FFCB"/>
</linearGradient>
<linearGradient id="paint15_linear_187_19515" x1="-1.00689e-06" y1="8.59612" x2="72.2264" y2="12.8805" gradientUnits="userSpaceOnUse">
<stop stop-color="#1FA2FF"/>
<stop offset="0.515625" stop-color="#12D8FA"/>
<stop offset="1" stop-color="#A6FFCB"/>
</linearGradient>
<clipPath id="clip0_187_19515">
<rect width="70" height="70" fill="white"/>
</clipPath>
</defs>
</svg>
