<svg width="140" height="21" viewBox="0 0 140 21" fill="none" xmlns="http://www.w3.org/2000/svg">
<path d="M19.2707 7.72857V6.01379H15.6292V19.0075H19.4418V12.8729C19.4418 10.3853 20.8348 9.25014 22.9367 9.25014C23.2299 9.25014 23.4743 9.27429 23.7921 9.29844V5.82058C21.7636 5.82058 20.1994 6.47268 19.2707 7.72857Z" fill="white"/>
<path d="M50.3336 4.20242C51.7511 4.20242 52.7042 3.28465 52.7042 2.02875C52.7042 0.869466 51.7511 0 50.3336 0C48.9161 0 47.9629 0.91777 47.9629 2.10121C47.9629 3.28465 48.9161 4.20242 50.3336 4.20242ZM42.9284 3.86429C43.5149 3.86429 44.0526 4.03336 44.4681 4.32318L45.4701 1.59402C44.7613 1.11098 43.6371 0.893618 42.5618 0.893618C39.2868 0.893618 37.4783 2.80161 37.4783 5.72398V7.51122L35.4498 8.11501V11.0132L37.4783 10.4094V19.0075H41.2909V9.20185L44.5658 7.99426V5.09604L41.1931 6.30363V5.74813C41.1931 4.46809 41.8041 3.86429 42.9284 3.86429ZM48.4273 19.0075H52.2399V6.0138H48.4273V19.0075Z" fill="white"/>
<path d="M63.2274 15.7228C62.812 16.0368 62.2499 16.2059 61.6877 16.2059C60.6613 16.2059 60.0503 15.6021 60.0503 14.4911V9.20185L63.3252 7.99426V5.09604L60.0503 6.30363V3.13974H56.2377V7.51122L54.2092 8.41691V11.3151L56.2377 10.4094V14.5394C56.2377 17.6308 58.0462 19.2007 61.1501 19.2007C62.3232 19.2007 63.4718 18.935 64.2539 18.3795L63.2274 15.7228Z" fill="white"/>
<path d="M83.2331 5.82059C81.2534 5.82059 79.5427 6.6176 78.4918 7.94595C77.5631 6.52099 75.9989 5.82059 74.1659 5.82059C72.4796 5.82059 71.0132 6.40023 70.0356 7.51122V6.0138H66.3941V19.0075H70.2067V12.4865C70.2067 10.1679 71.4042 9.08109 73.0906 9.08109C74.6792 9.08109 75.5834 10.0472 75.5834 12.1484V19.0075H79.396V12.4865C79.396 10.1679 80.5936 9.08109 82.3043 9.08109C83.844 9.08109 84.7972 10.0472 84.7972 12.1484V19.0075H88.6098V11.5687C88.6098 7.60783 86.3613 5.82059 83.2331 5.82059Z" fill="white"/>
<path d="M93.9335 4.20242C95.351 4.20242 96.3041 3.28465 96.3041 2.02875C96.3041 0.869466 95.351 0 93.9335 0C92.5159 0 91.5628 0.91777 91.5628 2.10121C91.5628 3.28465 92.5159 4.20242 93.9335 4.20242ZM92.0272 19.0075H95.8397V6.0138H92.0272V19.0075Z" fill="white"/>
<path d="M107.37 5.82059C105.586 5.82059 104.046 6.42439 103.02 7.53537V6.0138H99.3782V19.0075H103.191V12.5831C103.191 10.1921 104.51 9.08109 106.343 9.08109C108.03 9.08109 109.007 10.0472 109.007 12.1484V19.0075H112.82V11.5687C112.82 7.60783 110.474 5.82059 107.37 5.82059Z" fill="white"/>
<path d="M129.299 12.5589C129.299 8.38068 126.317 5.82059 122.456 5.82059C118.448 5.82059 115.442 8.6222 115.442 12.5106C115.442 16.3749 118.399 19.2007 122.945 19.2007C125.315 19.2007 127.148 18.4761 128.37 17.0995L126.342 14.9258C125.437 15.7711 124.435 16.1817 123.042 16.1817C121.038 16.1817 119.645 15.1915 119.279 13.5733H129.226C129.25 13.2594 129.299 12.8488 129.299 12.5589ZM122.48 8.67051C124.191 8.67051 125.437 9.73319 125.706 11.3755H119.23C119.499 9.70903 120.745 8.67051 122.48 8.67051Z" fill="white"/>
<path d="M135.479 7.72858V6.0138H131.837V19.0075H135.65V12.8729C135.65 10.3853 137.043 9.25015 139.145 9.25015C139.438 9.25015 139.682 9.2743 140 9.29845V5.82059C137.972 5.82059 136.407 6.47269 135.479 7.72858Z" fill="white"/>
<path fill-rule="evenodd" clip-rule="evenodd" d="M12.2487 11.3773C13.3225 10.8133 14.8321 9.91991 14.7189 7.24467C14.6658 6.66766 14.5047 6.16758 14.2352 5.7437C13.9655 5.31973 13.6016 4.97889 13.142 4.72104C12.6828 4.46287 12.1834 4.26634 11.6449 4.13085C11.1063 3.99536 10.4879 3.89698 9.7901 3.83585V0.531328H7.75007V3.74403C7.39681 3.74403 6.85808 3.75276 6.13392 3.77026V0.531328H4.09361V3.83585C3.80207 3.84462 3.37377 3.84907 2.80855 3.84907L0 3.83585V5.98644H1.47044C2.1417 5.98644 2.53473 6.28374 2.64953 6.87811V10.6416C2.73797 10.6416 2.80855 10.6461 2.86159 10.6549H2.64953V15.9261C2.57895 16.3719 2.32285 16.5949 1.8812 16.5949H0.410846L9.27537e-05 18.9947H2.64976C2.8176 18.9947 3.06033 18.9969 3.37841 19.0009C3.69632 19.0053 3.93469 19.0075 4.09371 19.0075H6.17351V12.1754C6.24408 12.1754 6.45387 12.1711 6.80281 12.1622C9.83761 12.1493 11.1749 11.9413 12.2487 11.3773ZM6.17374 6.13024C6.23571 6.13024 6.41009 6.12808 6.69692 6.12368C6.98411 6.11917 7.22248 6.11486 7.41236 6.11045C7.60228 6.10613 7.85842 6.11706 8.18092 6.14329C8.50328 6.16951 8.77482 6.20456 8.99556 6.24819C9.21629 6.29182 9.45939 6.36398 9.72412 6.46452C9.98931 6.56496 10.2011 6.68741 10.3599 6.83163C10.519 6.97585 10.6537 7.15952 10.7639 7.38246C10.8744 7.60535 10.9297 7.86104 10.9297 8.14948C10.9297 8.39428 10.89 8.61727 10.8106 8.81844C10.7313 9.01947 10.6118 9.1878 10.453 9.32329C10.2942 9.45883 10.1305 9.57696 9.96263 9.67741C9.79498 9.77785 9.5806 9.85878 9.32014 9.91991C9.05973 9.98114 8.83231 10.0292 8.63812 10.0641C8.44379 10.0991 8.20096 10.1232 7.90946 10.1363C7.61792 10.1493 7.39704 10.1582 7.24698 10.1626C7.09677 10.1669 6.89149 10.1669 6.63085 10.1626C6.37016 10.1582 6.21801 10.1559 6.17374 10.1559V6.13024Z" fill="white"/>
<path d="M29.297 14.8919L24.4397 12.6072L29.297 21L34.1545 12.6072L29.297 14.8919ZM26.9973 14.9514L29.297 16.0331L31.5969 14.9514L29.297 18.925L26.9973 14.9514Z" fill="white"/>
<path d="M34.0323 11.4816L29.297 3.36917L24.5619 11.4816L29.297 13.6941L34.0323 11.4816ZM29.297 5.44769L31.9978 10.0747L29.297 8.81283L26.5964 10.0747L29.297 5.44769ZM29.297 9.96043L32.0644 11.2535L29.297 12.5465L26.5298 11.2535L29.297 9.96043Z" fill="white"/>
</svg>
