<svg width="64" height="39" viewBox="0 0 64 39" fill="none" xmlns="http://www.w3.org/2000/svg">
<path d="M31.7 33.75C35.5 30.1705 37.9 25.0568 37.9 19.4318C37.9 13.7046 35.5 8.59093 31.7 5.11366C28.3 2.04548 23.9 0.102295 19 0.102295C8.5 0.102295 0 8.79548 0 19.4318C0 30.1705 8.5 38.8637 19 38.8637C23.9 38.7614 28.3 36.8182 31.7 33.75Z" fill="#3362AB"/>
<path d="M31.7 33.75C35.5 30.1705 37.9 25.0568 37.9 19.4318C37.9 13.7046 35.5 8.59092 31.7 5.11365" fill="#3362AB"/>
<path d="M31.7 33.75C35.5 30.1705 37.9 25.0568 37.9 19.4318C37.9 13.7046 35.5 8.59092 31.7 5.11365" stroke="#3362AB" stroke-width="0.3097"/>
<path d="M44.4001 0C39.5001 0 35 1.94318 31.7 5.01136C31 5.62499 30.4001 6.3409 29.8001 7.05681H33.6C34.1 7.67045 34.6 8.38636 35 9.10227H28.3C27.9 9.7159 27.5 10.4318 27.2 11.1477H36.1C36.4 11.8636 36.7001 12.4773 36.9001 13.1932H26.4001C26.2001 13.9091 26 14.5227 25.8 15.2386H37.4001C37.7001 16.5682 37.8001 17.8977 37.8001 19.3295C37.8001 21.4773 37.5001 23.5227 36.8001 25.4659H26.3C26.5 26.1818 26.8 26.8977 27.1 27.5114H36C35.7 28.2273 35.3001 28.9432 34.9001 29.5568H28.2C28.6 30.2727 29.1 30.9886 29.6 31.6023H33.4001C32.8001 32.3182 32.2 33.0341 31.5 33.6477C34.9 36.7159 39.3 38.6591 44.2 38.6591C54.7001 38.6591 63.1 29.9659 63.1 19.2273C63.4001 8.69319 54.9001 0 44.4001 0Z" fill="#C9191B"/>
<path d="M16.5999 24.1364H14.1999L15.5999 16.5682L12.3999 24.1364H10.2999L9.8999 16.6705L8.49988 24.1364H6.3999L8.19989 14.3182H11.8999L12.0999 20.4546L14.6999 14.3182H18.4999L16.5999 24.1364Z" fill="white"/>
<path d="M42.9999 24.1363C42.3999 24.3409 41.7999 24.4431 41.2999 24.4431C40.0999 24.4431 39.3999 23.8295 39.3999 22.7045C39.3999 22.5 39.3999 22.1932 39.4999 21.9886L39.5999 21.1704L39.6999 20.5568L40.7999 14.4204H43.0999L42.7999 16.2613H43.9999L43.6999 18.2045H42.4999L41.8999 21.5795C41.8999 21.6818 41.8999 21.8863 41.8999 21.8863C41.8999 22.2954 42.1999 22.5 42.6999 22.5C42.9999 22.5 43.1999 22.5 43.2999 22.3977L42.9999 24.1363Z" fill="white"/>
<path d="M49.8 16.2613C49.6 16.159 49.6 16.1591 49.5 16.1591C49.4 16.1591 49.3 16.1591 49.3 16.1591C49.2 16.1591 49.1 16.1591 49 16.1591C48.2 16.1591 47.7001 16.4659 46.9001 17.4886L47.1 16.2613H45.2L43.8 24.2386H46.2C47 19.3295 47.4 18.5113 48.5 18.5113C48.6 18.5113 48.7 18.5113 48.8 18.5113L49.1 18.6136L49.8 16.2613Z" fill="white"/>
<path d="M33.5999 18.7159C33.5999 19.7386 34.2 20.4545 35.4 20.9659C36.4 21.375 36.4999 21.4772 36.4999 21.8863C36.4999 22.3977 36.0999 22.6022 35.0999 22.6022C34.3999 22.6022 33.6999 22.5 32.9999 22.2954L32.7 24.1363H32.8L33.2 24.2386C33.3 24.2386 33.6 24.3409 33.8 24.3409C34.4 24.3409 34.7999 24.4431 35.0999 24.4431C37.5999 24.4431 38.8 23.625 38.8 21.784C38.8 20.659 38.2999 20.0454 37.0999 19.534C36.0999 19.1249 35.9999 19.0227 35.9999 18.6136C35.9999 18.2045 36.4 17.9999 37.2 17.9999C37.7 17.9999 38.3 17.9999 38.9 18.1022L39.2 16.2613C38.6 16.159 37.6999 16.0568 37.0999 16.0568C34.4999 16.0568 33.5999 17.284 33.5999 18.7159Z" fill="white"/>
<path d="M22.6 20.659C22.3 20.659 22.2 20.659 22.1 20.659C20.8 20.659 20.1 21.0681 20.1 21.8863C20.1 22.3977 20.4001 22.7045 20.9001 22.7045C21.8001 22.6022 22.5 21.784 22.6 20.659ZM24.3 24.1363H22.3L22.4001 23.3181C21.8001 23.9318 21.0001 24.2386 19.9001 24.2386C18.6001 24.2386 17.8 23.3181 17.8 22.0909C17.8 20.1477 19.3001 19.0227 21.9001 19.0227C22.2001 19.0227 22.5001 19.0227 22.9001 19.1249C23.0001 18.8181 23 18.7159 23 18.6136C23 18.1022 22.6 17.8977 21.5 17.8977C20.8 17.8977 20.1 17.9999 19.6 18.1022L19.3 18.2045L19.1 18.3068L19.4001 16.4658C20.6001 16.159 21.3 16.0568 22.2 16.0568C24.2 16.0568 25.3 16.8749 25.3 18.409C25.3 18.8181 25.3 19.1249 25.1 19.9431L24.6 22.8068L24.5 23.3181L24.4001 23.7272V24.034L24.3 24.1363Z" fill="white"/>
<path d="M30.8001 19.2273C30.8001 19.0228 30.8001 18.9205 30.8001 18.8182C30.8001 18.2046 30.4001 17.7955 29.7001 17.7955C28.9001 17.7955 28.4001 18.3069 28.2001 19.2273H30.8001ZM32.0001 24.0342C31.2001 24.2387 30.4001 24.341 29.6001 24.341C27.0001 24.341 25.6001 23.1137 25.6001 20.7614C25.6001 18.0001 27.3001 15.9546 29.7001 15.9546C31.6001 15.9546 32.9001 17.0796 32.9001 18.8182C32.9001 19.4319 32.8001 19.9432 32.6001 20.7614H27.9001C27.9001 20.8637 27.9001 20.966 27.9001 20.966C27.9001 21.8864 28.6001 22.3978 30.0001 22.3978C30.8001 22.3978 31.6001 22.1932 32.5001 21.8864L32.0001 24.0342Z" fill="white"/>
<path d="M54.6999 19.534C54.6999 18.7158 54.3999 17.8977 53.3999 17.8977C52.1999 17.8977 51.4999 19.3295 51.4999 20.659C51.4999 21.784 51.9999 22.5 52.8999 22.5C53.3999 22.5 54.4999 21.784 54.6999 20.5568C54.6999 20.2499 54.6999 19.8409 54.6999 19.534ZM57.1999 20.5568C56.7999 23.2159 54.9999 24.4431 52.5999 24.4431C49.8999 24.4431 48.8999 22.8068 48.8999 20.7613C48.8999 17.8977 50.6999 16.0568 53.4999 16.0568C55.9999 16.0568 57.1999 17.5909 57.1999 19.6363C57.2999 20.0454 57.2999 20.0454 57.1999 20.5568Z" fill="white"/>
</svg>
