<svg width="54" height="16" viewBox="0 0 54 16" fill="none" xmlns="http://www.w3.org/2000/svg">
<path d="M47.9999 0H37.7C38.3 3.47728 41.6 6.75002 45.2 6.75002H53.4C53.5 6.4432 53.4999 5.93183 53.4999 5.62501C53.4999 2.55682 50.9999 0 47.9999 0Z" fill="url(#paint0_linear_187_19022)"/>
<path d="M38.6001 7.36365V15.8523H43.6001V11.3523H48.0001C50.4001 11.3523 52.5001 9.61365 53.2001 7.36365H38.6001Z" fill="#4FAD50"/>
<path d="M21 0V15.75H25.4C25.4 15.75 26.5 15.75 27.1 14.625C30.1 8.59092 31 6.75002 31 6.75002H31.6V15.75H36.6V0H32.2C32.2 0 31.1 0.102279 30.5 1.12501C28 6.34092 26.6 9.00002 26.6 9.00002H26V0H21Z" fill="#4FAD50"/>
<path d="M0 15.8523V0.102295H5.00001C5.00001 0.102295 6.40002 0.102292 7.20002 2.35229C9.20003 8.28411 9.40004 9.10229 9.40004 9.10229C9.40004 9.10229 9.80002 7.67047 11.6 2.35229C12.4 0.102292 13.8 0.102295 13.8 0.102295H18.8V15.8523H13.8V7.36366H13.2L10.4 15.8523H8.20003L5.40003 7.36366H4.80003V15.8523H0Z" fill="#4FAD50"/>
<defs>
<linearGradient id="paint0_linear_187_19022" x1="37.6822" y1="3.42338" x2="53.4645" y2="3.42338" gradientUnits="userSpaceOnUse">
<stop stop-color="#27B1E6"/>
<stop offset="1" stop-color="#148ACA"/>
</linearGradient>
</defs>
</svg>
