<svg width="70" height="70" viewBox="0 0 70 70" fill="none" xmlns="http://www.w3.org/2000/svg">
<path d="M45.9375 43.75C45.3573 43.75 44.8009 43.9805 44.3907 44.3907C43.9805 44.8009 43.75 45.3573 43.75 45.9375C43.75 46.5177 43.9805 47.0741 44.3907 47.4843C44.8009 47.8945 45.3573 48.125 45.9375 48.125H54.6875C55.2677 48.125 55.8241 47.8945 56.2343 47.4843C56.6445 47.0741 56.875 46.5177 56.875 45.9375C56.875 45.3573 56.6445 44.8009 56.2343 44.3907C55.8241 43.9805 55.2677 43.75 54.6875 43.75H45.9375Z" fill="url(#paint0_linear_187_18974)"/>
<path d="M4.375 21.875C4.375 19.5544 5.29687 17.3288 6.93782 15.6878C8.57876 14.0469 10.8044 13.125 13.125 13.125H56.875C59.1956 13.125 61.4212 14.0469 63.0622 15.6878C64.7031 17.3288 65.625 19.5544 65.625 21.875V48.125C65.625 50.4456 64.7031 52.6712 63.0622 54.3122C61.4212 55.9531 59.1956 56.875 56.875 56.875H13.125C10.8044 56.875 8.57876 55.9531 6.93782 54.3122C5.29687 52.6712 4.375 50.4456 4.375 48.125V21.875ZM61.25 21.875C61.25 20.7147 60.7891 19.6019 59.9686 18.7814C59.1481 17.9609 58.0353 17.5 56.875 17.5H13.125C11.9647 17.5 10.8519 17.9609 10.0314 18.7814C9.21094 19.6019 8.75 20.7147 8.75 21.875V26.25H61.25V21.875ZM8.75 48.125C8.75 49.2853 9.21094 50.3981 10.0314 51.2186C10.8519 52.0391 11.9647 52.5 13.125 52.5H56.875C58.0353 52.5 59.1481 52.0391 59.9686 51.2186C60.7891 50.3981 61.25 49.2853 61.25 48.125V30.625H8.75V48.125Z" fill="url(#paint1_linear_187_18974)"/>
<defs>
<linearGradient id="paint0_linear_187_18974" x1="43.75" y1="44.3188" x2="56.9752" y2="46.5153" gradientUnits="userSpaceOnUse">
<stop stop-color="#1FA2FF"/>
<stop offset="0.515625" stop-color="#12D8FA"/>
<stop offset="1" stop-color="#A6FFCB"/>
</linearGradient>
<linearGradient id="paint1_linear_187_18974" x1="4.375" y1="18.8125" x2="67.4165" y2="23.6988" gradientUnits="userSpaceOnUse">
<stop stop-color="#1FA2FF"/>
<stop offset="0.515625" stop-color="#12D8FA"/>
<stop offset="1" stop-color="#A6FFCB"/>
</linearGradient>
</defs>
</svg>
