<svg width="20" height="20" viewBox="0 0 20 20" fill="none" xmlns="http://www.w3.org/2000/svg">
<path d="M19.3148 5.41238L14.2196 0.117891C14.147 0.0425781 14.047 0 13.9424 0H6.34828C5.4984 0 4.80695 0.691172 4.80695 1.5407V6.92309H1.72934C1.09348 6.92309 0.576172 7.44023 0.576172 8.07594V13.8472C0.576172 14.4829 1.09348 15 1.72934 15H4.80695V18.462C4.80695 19.31 5.4984 20 6.34828 20H17.881C18.7309 20 19.4223 19.3104 19.4223 18.4629V5.6791C19.4223 5.57965 19.3838 5.48406 19.3148 5.41238ZM14.0377 1.03832L18.2205 5.38461H14.0377V1.03832ZM1.72934 14.2308C1.51762 14.2308 1.34543 14.0587 1.34543 13.8472V8.07594C1.34543 7.86441 1.51766 7.6923 1.72934 7.6923H12.1154C12.3271 7.6923 12.4993 7.86441 12.4993 8.07594V13.8472C12.4993 14.0587 12.327 14.2308 12.1154 14.2308H1.72934ZM18.6531 18.4629C18.6531 18.8863 18.3067 19.2308 17.881 19.2308H6.34828C5.92254 19.2308 5.57617 18.8859 5.57617 18.462V15H12.1154C12.7512 15 13.2685 14.4829 13.2685 13.8472V8.07594C13.2685 7.44023 12.7512 6.92309 12.1154 6.92309H5.57617V1.5407C5.57617 1.11527 5.92254 0.769219 6.34828 0.769219H13.2685V5.76922C13.2685 5.98164 13.4407 6.15383 13.6531 6.15383H18.6531V18.4629Z" fill="white"/>
<path d="M5.17519 9.76164C5.04749 9.59562 4.88898 9.48781 4.69968 9.43824C4.57648 9.4052 4.31207 9.38867 3.9064 9.38867H2.83594V12.6924H3.50301V11.4462H3.93797C4.23996 11.4462 4.47058 11.4304 4.62984 11.3989C4.74702 11.3733 4.86234 11.3211 4.97577 11.2422C5.08921 11.1634 5.18273 11.0548 5.25636 10.9166C5.32999 10.7784 5.36679 10.6078 5.36679 10.405C5.36675 10.1421 5.30288 9.92765 5.17519 9.76164ZM4.6039 10.671C4.55359 10.7446 4.4841 10.7987 4.39542 10.8332C4.30675 10.8678 4.13101 10.8851 3.86808 10.8851H3.50301V9.94758H3.82527C4.06566 9.94758 4.22566 9.95508 4.30527 9.97011C4.41343 9.98965 4.50285 10.0385 4.57343 10.1166C4.64406 10.1947 4.67937 10.2939 4.67937 10.4141C4.67941 10.5117 4.65421 10.5973 4.6039 10.671Z" fill="white"/>
<path d="M8.57363 10.2912C8.50153 10.0802 8.39633 9.90176 8.25813 9.75601C8.11992 9.61027 7.95387 9.50887 7.76008 9.45176C7.61586 9.40969 7.40625 9.38867 7.13133 9.38867H5.91211V12.6924H7.16738C7.41379 12.6924 7.61059 12.6692 7.75781 12.6226C7.95465 12.5595 8.1109 12.4716 8.22656 12.3589C8.37981 12.2101 8.49774 12.0156 8.58039 11.7752C8.64801 11.5784 8.6818 11.344 8.6818 11.0721C8.6818 10.7626 8.64574 10.5023 8.57363 10.2912ZM7.92457 11.6479C7.87949 11.7959 7.82129 11.9022 7.74992 11.9668C7.67856 12.0314 7.58879 12.0772 7.48063 12.1042C7.39801 12.1253 7.26352 12.1358 7.07723 12.1358H6.57918V9.94758H6.87891C7.15082 9.94758 7.3334 9.95808 7.42652 9.97914C7.55121 10.0062 7.65414 10.058 7.73527 10.1346C7.81641 10.2113 7.87949 10.3179 7.92457 10.4546C7.96965 10.5914 7.99219 10.7874 7.99219 11.0428C7.99219 11.2982 7.96965 11.4999 7.92457 11.6479Z" fill="white"/>
<path d="M11.5168 9.94758V9.38867H9.25195V12.6924H9.91902V11.2885H11.2982V10.7296H9.91902V9.94758H11.5168Z" fill="white"/>
</svg>
