<svg width="69" height="22" viewBox="0 0 69 22" fill="none" xmlns="http://www.w3.org/2000/svg">
<path d="M63.7999 0.306885H59.4999C58.1999 0.306885 57.1999 0.715976 56.5999 2.04552L48.3999 21.1705H54.1999C54.1999 21.1705 55.1999 18.6137 55.3999 18.0001C55.9999 18.0001 61.6999 18.0001 62.4999 18.0001C62.6999 18.716 63.1999 21.0682 63.1999 21.0682H68.3999L63.7999 0.306885ZM56.9999 13.7046C57.4999 12.4773 59.1999 7.87507 59.1999 7.87507C59.1999 7.97734 59.6999 6.64779 59.8999 5.93188L60.2999 7.77279C60.2999 7.77279 61.3999 12.7842 61.5999 13.8069H56.9999V13.7046Z" fill="#3362AB"/>
<path d="M48.7999 14.3182C48.7999 18.6136 44.9999 21.4773 39.0999 21.4773C36.5999 21.4773 34.1999 20.9659 32.8999 20.3523L33.6999 15.6477L34.3999 15.9545C36.1999 16.7727 37.3999 17.0795 39.5999 17.0795C41.1999 17.0795 42.8999 16.4659 42.8999 15.0341C42.8999 14.1136 42.1999 13.5 39.9999 12.4773C37.8999 11.4545 35.0999 9.81818 35.0999 6.85227C35.0999 2.76136 38.9999 0 44.4999 0C46.5999 0 48.3999 0.409091 49.4999 0.920454L48.6999 5.42045L48.2999 5.01136C47.2999 4.60227 45.9999 4.19318 44.0999 4.19318C41.9999 4.29545 40.9999 5.21591 40.9999 6.03409C40.9999 6.95454 42.1999 7.67045 44.0999 8.59091C47.2999 10.125 48.7999 11.8636 48.7999 14.3182Z" fill="#3362AB"/>
<path d="M0 0.511386L0.1 0.102295H8.7C9.9 0.102295 10.8 0.511386 11.1 1.84093L13 11.0455C11.1 6.13638 6.7 2.14775 0 0.511386Z" fill="#F9B50B"/>
<path d="M25.1 0.306863L16.4 21.0682H10.5L5.5 3.68186C9.1 6.03414 12.1 9.71596 13.2 12.2728L13.8 14.4205L19.2 0.20459H25.1V0.306863Z" fill="#3362AB"/>
<path d="M27.3999 0.20459H32.8999L29.3999 21.0682H23.8999L27.3999 0.20459Z" fill="#3362AB"/>
</svg>
