<svg width="24" height="24" viewBox="0 0 24 24" fill="none" xmlns="http://www.w3.org/2000/svg">
<circle cx="12" cy="12" r="12" fill="#180269"/>
<path fill-rule="evenodd" clip-rule="evenodd" d="M18.9875 8.26761C19.0963 7.92834 18.9875 7.6816 18.506 7.6816H16.9061C16.5022 7.6816 16.3159 7.8975 16.2071 8.12882C16.2071 8.12882 15.3839 10.1027 14.2344 11.3827C13.8616 11.7528 13.6908 11.8761 13.4888 11.8761C13.3801 11.8761 13.2403 11.7528 13.2403 11.4135V8.25219C13.2403 7.85124 13.116 7.66618 12.7743 7.66618H10.2579C10.0094 7.66618 9.85408 7.85124 9.85408 8.03629C9.85408 8.42182 10.4288 8.51434 10.4909 9.59382V11.9378C10.4909 12.4467 10.3977 12.5393 10.1958 12.5393C9.65215 12.5393 8.33183 10.5499 7.53964 8.28303C7.38431 7.83582 7.22898 7.66618 6.82512 7.66618H5.20967C4.74368 7.66618 4.66602 7.88208 4.66602 8.11339C4.66602 8.52976 5.20968 10.627 7.19791 13.4028C8.51823 15.2996 10.3977 16.3174 12.0908 16.3174C13.116 16.3174 13.2403 16.0861 13.2403 15.7006V14.2664C13.2403 13.8038 13.3335 13.7267 13.6597 13.7267C13.8927 13.7267 14.3121 13.8501 15.2596 14.7599C16.3469 15.8394 16.5333 16.3328 17.1391 16.3328H18.739C19.205 16.3328 19.4225 16.1015 19.2982 15.6543C19.1584 15.2071 18.6303 14.5594 17.9468 13.7884C17.574 13.3566 17.0148 12.8785 16.844 12.6472C16.611 12.3388 16.6731 12.2154 16.844 11.9378C16.8284 11.9378 18.7856 9.19287 18.9875 8.26761Z" fill="white"/>
</svg>
