<svg width="595" height="960" viewBox="0 0 595 960" fill="none" xmlns="http://www.w3.org/2000/svg">
<g opacity="0.2">
<path opacity="0.6" d="M191.827 9.81689L-68.7374 52.8355L-279.868 190.57L-386.094 478.87L-258.359 810.189L14.8469 950.565L258.807 913.962L485.221 769.812L593.9 476.417L467.485 150.193L191.827 9.81689Z" stroke="#0071BC" stroke-width="0.8601" stroke-miterlimit="10"/>
<path opacity="0.6" d="M14.8469 950.565L-77.4166 856.981L-87.6052 556.04L-14.2095 253.777L-68.7374 52.8354L-282.321 324.72L-386.094 478.87L-287.415 636.982L-77.4166 856.981L258.807 913.962L454.844 650.945L467.485 338.494V150.193" stroke="#0071BC" stroke-width="0.8601" stroke-miterlimit="10"/>
<path opacity="0.6" d="M191.825 9.81689L247.485 117.175L241.07 428.305L172.957 726.793L258.806 913.962" stroke="#0071BC" stroke-width="0.8601" stroke-miterlimit="10"/>
<path opacity="0.6" d="M-69.4941 52.8354L248.239 117.741L467.483 150.193" stroke="#0071BC" stroke-width="0.8601" stroke-miterlimit="10"/>
<path opacity="0.6" d="M-282.131 325.852L-15.5289 253.4L248.243 117.741L466.732 337.739L593.146 476.04L454.845 650.945" stroke="#0071BC" stroke-width="0.8601" stroke-miterlimit="10"/>
<path opacity="0.6" d="M-283.076 325.852L-88.9265 556.039L171.638 726.793" stroke="#0071BC" stroke-width="0.8601" stroke-miterlimit="10"/>
<path opacity="0.6" d="M485.222 770.944L454.844 649.624L239.94 426.984L-14.209 252.646" stroke="#0071BC" stroke-width="0.8601" stroke-miterlimit="10"/>
<path opacity="0.6" d="M467.485 339.815L241.071 428.305L-88.9264 556.04L-288.736 638.303" stroke="#0071BC" stroke-width="0.8601" stroke-miterlimit="10"/>
<path opacity="0.6" d="M-258.359 810.189L-78.738 855.66L170.317 726.793L454.843 650.945" stroke="#0071BC" stroke-width="0.8601" stroke-miterlimit="10"/>
<g opacity="0.6">
<path opacity="0.6" d="M476.919 150.948C476.919 156.42 472.58 160.759 467.108 160.759C461.636 160.759 457.297 156.42 457.297 150.948C457.297 145.476 461.636 141.137 467.108 141.137C472.391 140.948 476.919 145.476 476.919 150.948Z" fill="#0071BC"/>
<path opacity="0.6" d="M477.484 338.494C477.484 343.966 473.144 348.305 467.672 348.305C462.201 348.305 457.861 343.966 457.861 338.494C457.861 333.022 462.201 328.683 467.672 328.683C472.955 328.683 477.484 333.022 477.484 338.494Z" fill="#0071BC"/>
<path opacity="0.6" d="M251.072 428.304C251.072 433.776 246.732 438.116 241.26 438.116C235.789 438.116 231.449 433.776 231.449 428.304C231.449 422.833 235.789 418.493 241.26 418.493C246.543 418.493 251.072 422.833 251.072 428.304Z" fill="#0071BC"/>
<path opacity="0.6" d="M464.843 649.624C464.843 655.096 460.504 659.435 455.032 659.435C449.56 659.435 445.221 655.096 445.221 649.624C445.221 644.152 449.56 639.813 455.032 639.813C460.315 639.813 464.843 644.152 464.843 649.624Z" fill="#0071BC"/>
<path opacity="0.6" d="M495.033 769.812C495.033 775.284 490.693 779.623 485.221 779.623C479.75 779.623 475.41 775.284 475.41 769.812C475.41 764.34 479.75 760.001 485.221 760.001C490.693 759.812 495.033 764.34 495.033 769.812Z" fill="#0071BC"/>
<path opacity="0.6" d="M268.806 913.207C268.806 918.679 264.467 923.018 258.995 923.018C253.523 923.018 249.184 918.49 249.184 913.207C249.184 907.735 253.523 903.396 258.995 903.396C264.278 903.396 268.806 907.735 268.806 913.207Z" fill="#0071BC"/>
<path opacity="0.6" d="M182.771 725.472C182.771 730.944 178.431 735.284 172.96 735.284C167.488 735.284 163.148 730.944 163.148 725.472C163.148 720.001 167.488 715.661 172.96 715.661C178.243 715.661 182.771 720.001 182.771 725.472Z" fill="#0071BC"/>
<path opacity="0.6" d="M22.2045 949.999C22.2045 955.471 17.8649 959.811 12.3932 959.811C6.92159 959.811 2.58203 955.282 2.58203 949.999C2.58203 944.528 6.92159 940.188 12.3932 940.188C17.6762 939.999 22.2045 944.528 22.2045 949.999Z" fill="#0071BC"/>
<path opacity="0.6" d="M258.808 118.684C258.808 124.156 254.468 128.495 248.997 128.495C243.525 128.495 239.186 124.156 239.186 118.684C239.186 113.212 243.525 108.873 248.997 108.873C254.28 108.684 258.808 113.212 258.808 118.684Z" fill="#0071BC"/>
<path opacity="0.6" d="M201.638 9.81694C201.638 15.2886 197.299 19.6282 191.827 19.6282C186.355 19.6282 182.016 15.2886 182.016 9.81694C182.016 4.34528 186.355 0.0056909 191.827 0.0056909C197.299 -0.182987 201.638 4.34528 201.638 9.81694Z" fill="#0071BC"/>
</g>
</g>
</svg>
