<svg width="364" height="300" viewBox="0 0 364 300" fill="none" xmlns="http://www.w3.org/2000/svg">
<g clip-path="url(#clip0_187_19140)">
<path d="M347.898 172.651C347.43 172.098 346.847 171.655 346.19 171.351C345.533 171.047 344.817 170.89 344.093 170.89H213.281C212.556 170.89 211.84 171.049 211.183 171.354C210.525 171.66 209.943 172.105 209.476 172.659C209.008 173.213 208.668 173.863 208.478 174.562C208.288 175.261 208.253 175.994 208.375 176.708C212.246 195.376 221.564 212.477 235.152 225.851C236.075 226.721 237.296 227.206 238.565 227.208H273.711V244.646H204.963C203.915 239.327 201.053 234.535 196.865 231.092C192.676 227.648 187.422 225.765 182 225.765C176.577 225.765 171.323 227.648 167.135 231.092C162.946 234.535 160.084 239.327 159.036 244.646H90.2887V227.191H125.432C126.7 227.189 127.921 226.704 128.844 225.834C142.432 212.46 151.75 195.359 155.621 176.691C155.741 175.978 155.704 175.248 155.513 174.551C155.322 173.854 154.981 173.207 154.514 172.655C154.048 172.103 153.466 171.659 152.811 171.354C152.155 171.049 151.441 170.891 150.718 170.89H19.9059C19.1811 170.89 18.465 171.049 17.8077 171.354C17.1504 171.66 16.5677 172.105 16.1005 172.659C15.6333 173.213 15.2928 173.863 15.1028 174.562C14.9127 175.261 14.8778 175.994 15.0004 176.708C18.871 195.376 28.1891 212.477 41.7772 225.851C42.7005 226.721 43.9209 227.206 45.1897 227.208H80.3356V249.622C80.3386 250.94 80.8641 252.203 81.797 253.135C82.7299 254.066 83.994 254.589 85.3121 254.59H158.587V277.724H147.172C146.055 277.725 144.97 278.103 144.093 278.796C143.216 279.488 142.598 280.456 142.338 281.543L131.048 328.678C130.873 329.409 130.866 330.171 131.027 330.905C131.188 331.639 131.513 332.327 131.978 332.918C132.444 333.508 133.037 333.986 133.713 334.314C134.389 334.643 135.131 334.814 135.883 334.815H228.117C228.869 334.814 229.611 334.644 230.287 334.315C230.964 333.987 231.557 333.51 232.022 332.919C232.488 332.328 232.813 331.64 232.974 330.905C233.135 330.171 233.127 329.41 232.951 328.678L221.667 281.543C221.407 280.456 220.789 279.488 219.912 278.796C219.035 278.103 217.95 277.725 216.833 277.724H205.412V254.59H278.687C280.007 254.589 281.272 254.065 282.205 253.132C283.138 252.199 283.663 250.933 283.664 249.614V227.191H318.807C320.075 227.189 321.296 226.704 322.219 225.834C335.807 212.46 345.125 195.359 348.996 176.691C349.117 175.978 349.082 175.248 348.892 174.55C348.703 173.852 348.364 173.204 347.898 172.651ZM47.2059 217.239C37.3628 206.994 30.1728 194.5 26.2617 180.842H144.374C140.474 194.507 133.278 207.005 123.418 217.239H47.2059ZM168.54 249.167C168.54 245.598 169.958 242.175 172.482 239.651C175.006 237.127 178.43 235.709 182 235.709C185.569 235.709 188.993 237.127 191.517 239.651C194.041 242.175 195.459 245.598 195.459 249.167V277.724H168.54V249.167ZM212.903 287.676L221.812 324.863H142.187L151.091 287.676H212.903ZM316.793 217.239H240.581C230.738 206.994 223.548 194.5 219.637 180.842H337.749C333.849 194.507 326.653 207.005 316.793 217.239Z" fill="url(#paint0_linear_187_19140)"/>
<path d="M280.82 28.4344C269.15 28.4344 257.741 31.8947 248.037 38.3779C238.333 44.861 230.77 54.0758 226.304 64.8568C221.838 75.6379 220.669 87.5011 222.946 98.9463C225.223 110.391 230.843 120.904 239.095 129.156C247.348 137.407 257.862 143.027 269.308 145.303C280.755 147.58 292.619 146.411 303.402 141.946C314.184 137.48 323.4 129.918 329.883 120.215C336.367 110.512 339.828 99.105 339.828 87.4357C339.81 71.793 333.588 56.7961 322.525 45.735C311.463 34.6739 296.465 28.4521 280.82 28.4344ZM280.82 142.504C269.928 142.504 259.28 139.274 250.223 133.223C241.166 127.172 234.107 118.572 229.939 108.509C225.77 98.4469 224.679 87.3746 226.804 76.6925C228.93 66.0103 234.175 56.1982 241.877 48.4968C249.579 40.7954 259.393 35.5507 270.076 33.4259C280.759 31.3011 291.833 32.3916 301.896 36.5596C311.96 40.7275 320.561 47.7857 326.613 56.8416C332.664 65.8975 335.894 76.5443 335.894 87.4357C335.877 102.035 330.07 116.033 319.745 126.356C309.42 136.68 295.422 142.487 280.82 142.504Z" fill="url(#paint1_linear_187_19140)"/>
<path fill-rule="evenodd" clip-rule="evenodd" d="M339.828 87.4357C339.828 99.105 336.367 110.512 329.883 120.215C323.4 129.918 314.184 137.48 303.402 141.946C292.619 146.411 280.755 147.58 269.308 145.303C257.862 143.027 247.348 137.407 239.095 129.156C230.843 120.904 225.223 110.391 222.946 98.9463C220.669 87.5011 221.838 75.6379 226.304 64.8568C230.77 54.0758 238.333 44.861 248.037 38.3779C257.741 31.8947 269.15 28.4344 280.82 28.4344C281.057 28.4346 281.294 28.4363 281.531 28.4394C296.918 28.6417 311.631 34.8416 322.525 45.735C333.588 56.7961 339.81 71.793 339.828 87.4357ZM280.109 27.7277C268.546 27.8653 257.266 31.3572 247.642 37.7868C237.822 44.348 230.167 53.6738 225.647 64.5848C221.127 75.4957 219.945 87.5019 222.249 99.0849C224.553 110.668 230.241 121.308 238.593 129.659C246.945 138.009 257.585 143.696 269.17 146C280.754 148.304 292.761 147.122 303.674 142.602C314.586 138.083 323.913 130.43 330.475 120.61C337.036 110.79 340.539 99.2456 340.539 87.4356C340.521 71.6047 334.224 56.4265 323.028 45.2323C311.833 34.0381 296.654 27.7414 280.821 27.7235L280.109 27.7227V27.7277ZM280.82 142.504C269.928 142.504 259.28 139.274 250.223 133.223C241.166 127.172 234.107 118.572 229.939 108.509C225.77 98.4469 224.679 87.3746 226.804 76.6925C228.93 66.0103 234.175 56.1982 241.877 48.4968C249.579 40.7954 259.393 35.5507 270.076 33.4259C280.759 31.3011 291.833 32.3916 301.896 36.5596C311.96 40.7275 320.561 47.7857 326.613 56.8416C332.664 65.8975 335.894 76.5443 335.894 87.4357C335.877 102.035 330.07 116.033 319.745 126.356C309.42 136.68 295.422 142.487 280.82 142.504ZM280.819 141.793C270.068 141.792 259.557 138.605 250.618 132.632C241.678 126.659 234.71 118.17 230.595 108.237C226.481 98.3047 225.404 87.3753 227.502 76.8311C229.599 66.2869 234.777 56.6014 242.38 48.9994C249.983 41.3974 259.669 36.2204 270.215 34.123C280.76 32.0257 291.69 33.1021 301.624 37.2163C311.558 41.3304 320.048 48.2975 326.021 57.2365C331.995 66.1752 335.183 76.6843 335.183 87.4348C335.167 101.846 329.434 115.663 319.242 125.853C309.051 136.044 295.233 141.776 280.819 141.793Z" fill="url(#paint2_linear_187_19140)"/>
<path fill-rule="evenodd" clip-rule="evenodd" d="M280.12 28.4385C280.119 28.4385 280.118 28.4385 280.118 28.4385C268.692 28.5745 257.546 32.0249 248.037 38.3779C238.333 44.861 230.77 54.0758 226.304 64.8568C221.838 75.6379 220.669 87.5011 222.946 98.9463C225.223 110.391 230.843 120.904 239.095 129.156C247.348 137.407 257.862 143.027 269.308 145.303C270.739 145.588 272.176 145.819 273.617 145.996C283.704 147.236 293.967 145.853 303.402 141.946C314.184 137.48 323.4 129.918 329.883 120.215C336.367 110.512 339.828 99.105 339.828 87.4357C339.81 71.793 333.588 56.7961 322.525 45.735C311.631 34.8416 296.918 28.6417 281.531 28.4394C281.523 28.4393 281.515 28.4392 281.507 28.4391C281.278 28.4362 281.049 28.4346 280.82 28.4344C280.587 28.4344 280.353 28.4357 280.12 28.4385ZM280.82 29.1452C269.29 29.1452 258.019 32.5639 248.432 38.9689C238.845 45.3739 231.373 54.4776 226.961 65.1288C222.549 75.78 221.394 87.5003 223.644 98.8075C225.893 110.115 231.445 120.501 239.598 128.653C247.751 136.805 258.139 142.357 269.447 144.606C280.756 146.855 292.477 145.701 303.129 141.289C313.782 136.877 322.887 129.406 329.292 119.82C335.698 110.234 339.117 98.9649 339.117 87.4364C339.1 71.982 332.952 57.1655 322.023 46.2376C311.259 35.4753 296.724 29.3501 281.522 29.1502C281.288 29.1471 281.054 29.1454 280.82 29.1452ZM341.25 87.434V87.4356C341.25 99.3862 337.706 111.068 331.066 121.005C324.426 130.941 314.988 138.686 303.946 143.259C292.904 147.832 280.753 149.029 269.031 146.698C257.309 144.366 246.541 138.611 238.09 130.161C229.639 121.711 223.883 110.944 221.552 99.2236C219.22 87.5026 220.417 75.3536 224.99 64.3127C229.564 53.2719 237.31 43.8351 247.247 37.1957C256.79 30.8199 267.944 27.2988 279.398 27.0293V27.011L280.822 27.0126C296.843 27.0307 312.202 33.4024 323.531 44.7296C334.859 56.0569 341.232 71.4148 341.25 87.434ZM280.82 143.214C269.787 143.214 259.002 139.943 249.828 133.814C240.654 127.685 233.504 118.973 229.282 108.781C225.059 98.589 223.955 87.3738 226.107 76.5537C228.26 65.7337 233.573 55.7949 241.374 47.9941C249.176 40.1933 259.116 34.8809 269.937 32.7286C280.758 30.5764 291.975 31.681 302.168 35.9028C312.362 40.1245 321.074 47.2738 327.204 56.4466C333.333 65.6194 336.605 76.4036 336.605 87.4356C336.588 102.224 330.706 116.402 320.248 126.859C309.79 137.315 295.61 143.198 280.82 143.214ZM340.539 87.4356C340.539 99.2456 337.036 110.79 330.475 120.61C323.913 130.43 314.586 138.083 303.674 142.602C292.761 147.122 280.754 148.304 269.17 146C268.446 145.856 267.725 145.699 267.009 145.529C256.264 142.975 246.423 137.487 238.593 129.659C230.241 121.308 224.553 110.668 222.249 99.0849C219.945 87.5019 221.127 75.4957 225.647 64.5848C230.167 53.6738 237.822 44.348 247.642 37.7868C257.266 31.3572 268.546 27.8653 280.109 27.7277V27.7227L280.821 27.7235C281.061 27.7237 281.301 27.7254 281.54 27.7286C297.113 27.9334 312.002 34.2078 323.028 45.2323C334.224 56.4265 340.521 71.6047 340.539 87.4356ZM250.618 132.632C259.557 138.605 270.068 141.792 280.819 141.793C295.233 141.776 309.051 136.044 319.242 125.853C329.434 115.663 335.167 101.846 335.183 87.4348C335.183 86.7632 335.171 86.0924 335.146 85.423C334.774 75.3773 331.622 65.6168 326.021 57.2365C325.275 56.1191 324.489 55.0325 323.665 53.9785C317.903 46.6003 310.316 40.8162 301.624 37.2163C291.69 33.1021 280.76 32.0257 270.215 34.123C259.669 36.2204 249.983 41.3974 242.38 48.9994C234.777 56.6014 229.599 66.2869 227.502 76.8311C225.404 87.3753 226.481 98.3047 230.595 108.237C234.71 118.17 241.678 126.659 250.618 132.632ZM334.472 87.434C334.456 101.657 328.798 115.293 318.74 125.351C308.681 135.408 295.043 141.066 280.819 141.082C270.208 141.081 259.835 137.935 251.013 132.041C242.19 126.146 235.313 117.768 231.252 107.965C227.191 98.1626 226.129 87.3761 228.199 76.9698C230.269 66.5634 235.379 57.0046 242.882 49.5021C250.386 41.9995 259.946 36.8902 270.353 34.8203C280.761 32.7503 291.548 33.8127 301.352 37.873C311.156 41.9334 319.535 48.8093 325.43 57.6314C331.325 66.453 334.472 76.8244 334.472 87.434ZM335.894 87.4357C335.877 102.035 330.07 116.033 319.745 126.356C309.42 136.68 295.422 142.487 280.82 142.504C280.82 142.504 280.82 142.504 280.82 142.504C269.928 142.504 259.28 139.274 250.223 133.223C241.166 127.172 234.107 118.572 229.939 108.509C225.77 98.4469 224.679 87.3746 226.804 76.6925C228.93 66.0103 234.175 56.1982 241.877 48.4968C249.579 40.7954 259.393 35.5507 270.076 33.4259C280.759 31.3011 291.833 32.3916 301.896 36.5596C311.96 40.7275 320.561 47.7857 326.613 56.8416C327.369 57.9735 328.081 59.1303 328.749 60.3094C333.421 68.5626 335.894 77.906 335.894 87.4357C335.894 87.4359 335.894 87.4354 335.894 87.4357Z" fill="url(#paint3_linear_187_19140)"/>
<path d="M307.316 91.4183L280.787 102.745L254.328 91.4183C253.661 91.1284 252.915 91.0693 252.21 91.2505C251.505 91.4316 250.88 91.8427 250.435 92.4186C249.99 92.9945 249.749 93.7024 249.751 94.4304C249.753 95.1584 249.998 95.8649 250.447 96.4381L277.354 131.023C277.764 131.55 278.29 131.977 278.891 132.271C279.492 132.565 280.152 132.717 280.821 132.717C281.49 132.717 282.15 132.565 282.751 132.271C283.352 131.977 283.878 131.55 284.289 131.023L311.191 96.4381C311.64 95.8649 311.885 95.1584 311.887 94.4304C311.889 93.7024 311.649 92.9945 311.203 92.4186C310.758 91.8427 310.133 91.4316 309.428 91.2505C308.723 91.0693 307.977 91.1284 307.31 91.4183H307.316ZM256.325 96.9664L278.665 106.538V125.686L256.325 96.9664ZM282.978 125.531V106.538L305.3 96.9729L282.978 125.531Z" fill="url(#paint4_linear_187_19140)"/>
<path fill-rule="evenodd" clip-rule="evenodd" d="M277.354 131.023L250.447 96.4381C249.998 95.8649 249.753 95.1584 249.751 94.4304C249.749 93.7024 249.99 92.9945 250.435 92.4186C250.88 91.8427 251.505 91.4316 252.21 91.2505C252.915 91.0693 253.661 91.1284 254.328 91.4183L280.787 102.745L307.316 91.4183H307.31C307.311 91.4175 307.313 91.4168 307.315 91.416L307.316 91.4155C307.36 91.3964 307.405 91.3783 307.45 91.3613C308.081 91.1214 308.772 91.0819 309.428 91.2505C310.133 91.4316 310.758 91.8427 311.203 92.4186C311.649 92.9945 311.889 93.7024 311.887 94.4304C311.885 95.1584 311.64 95.8649 311.191 96.4381L284.289 131.023C283.878 131.55 283.352 131.977 282.751 132.271C282.15 132.565 281.49 132.717 280.821 132.717C280.152 132.717 279.492 132.565 278.891 132.271C278.29 131.977 277.764 131.55 277.354 131.023ZM311.751 96.8763L284.85 131.459C284.373 132.072 283.761 132.568 283.063 132.91C282.365 133.251 281.598 133.428 280.821 133.428C280.044 133.428 279.277 133.251 278.579 132.91C277.881 132.568 277.27 132.072 276.793 131.459L249.887 96.8763L249.886 96.8753C249.34 96.1777 249.043 95.3182 249.04 94.4325C249.038 93.5464 249.33 92.6847 249.872 91.9838C250.415 91.2828 251.175 90.7825 252.033 90.562C252.891 90.3416 253.797 90.4133 254.61 90.7655L254.612 90.7663L280.787 101.972L307.027 90.7688L307.026 90.7663C307.839 90.4134 308.747 90.3415 309.605 90.562C310.463 90.7825 311.224 91.2828 311.766 91.9838C312.308 92.6847 312.601 93.5464 312.598 94.4325C312.595 95.3184 312.297 96.1786 311.751 96.8763ZM256.325 96.9664L278.665 125.686V106.538L256.325 96.9664ZM258.579 98.7052L277.954 123.614V107.007L258.579 98.7052ZM282.978 125.531L305.3 96.9729L282.978 106.538V125.531ZM283.689 123.467L303.034 98.7172L283.689 107.007V123.467Z" fill="url(#paint5_linear_187_19140)"/>
<path d="M311.765 79.1859L284.272 43.8403C283.848 43.337 283.32 42.9323 282.724 42.6546C282.128 42.377 281.479 42.2331 280.821 42.2331C280.164 42.2331 279.514 42.377 278.918 42.6546C278.322 42.9323 277.794 43.337 277.371 43.8403L249.877 79.1859C249.466 79.713 249.182 80.3273 249.045 80.9816C248.909 81.6359 248.925 82.3128 249.092 82.96C249.258 83.6073 249.572 84.2076 250.007 84.7148C250.442 85.222 250.988 85.6225 251.603 85.8855L279.096 97.6652C279.641 97.8995 280.228 98.0204 280.821 98.0204C281.414 98.0204 282.001 97.8995 282.546 97.6652L310.04 85.8833C310.654 85.6203 311.2 85.2198 311.635 84.7126C312.071 84.2054 312.384 83.6051 312.55 82.9579C312.717 82.3106 312.733 81.6338 312.597 80.9795C312.46 80.3251 312.176 79.7108 311.765 79.1838V79.1859ZM278.665 92.7834L255.819 82.9292L278.665 74.7634V92.7834ZM282.978 74.7634L305.912 82.9573L282.978 92.7726V74.7634ZM282.978 70.1856V49.2051L305.548 78.2523L282.978 70.1856ZM278.665 49.3129V70.1856L256.071 78.2609L278.665 49.3129Z" fill="url(#paint6_linear_187_19140)"/>
<path fill-rule="evenodd" clip-rule="evenodd" d="M284.272 43.8403L311.763 79.1837L311.764 79.1845L311.765 79.1859V79.1838L311.767 79.1859C312.08 79.588 312.319 80.0409 312.476 80.5235C312.524 80.6729 312.565 80.8251 312.597 80.9795C312.733 81.6338 312.717 82.3106 312.55 82.9579C312.384 83.6051 312.071 84.2054 311.635 84.7126C311.2 85.2198 310.654 85.6203 310.04 85.8833L282.546 97.6652C282.001 97.8995 281.414 98.0204 280.821 98.0204C280.228 98.0204 279.641 97.8995 279.096 97.6652L251.603 85.8855C250.988 85.6225 250.442 85.222 250.007 84.7148C249.572 84.2076 249.258 83.6073 249.092 82.96C248.925 82.3128 248.909 81.6359 249.045 80.9816C249.182 80.3273 249.466 79.713 249.877 79.1859L277.371 43.8403C277.794 43.337 278.322 42.9323 278.918 42.6546C279.514 42.377 280.164 42.2331 280.821 42.2331C281.479 42.2331 282.128 42.377 282.724 42.6546C283.32 42.9323 283.848 43.337 284.272 43.8403ZM249.317 78.7488C248.839 79.3616 248.508 80.0759 248.349 80.8367C248.191 81.5976 248.21 82.3846 248.403 83.1372C248.597 83.8898 248.961 84.5879 249.467 85.1777C249.973 85.7674 250.608 86.2332 251.323 86.5389L278.815 98.3182C279.449 98.5907 280.131 98.7312 280.821 98.7312C281.511 98.7312 282.193 98.5908 282.826 98.3185M282.826 98.3185L310.319 86.5368C311.034 86.231 311.669 85.7653 312.175 85.1755C312.681 84.5857 313.045 83.8877 313.239 83.1351C313.433 82.3825 313.451 81.5954 313.293 80.8346C313.134 80.0737 312.803 79.3594 312.325 78.7466L311.717 77.9671L284.824 43.3932L284.816 43.3829C284.326 42.8002 283.715 42.3316 283.025 42.0102C282.334 41.6888 281.582 41.5222 280.821 41.5222C280.06 41.5222 279.308 41.6888 278.618 42.0102C277.928 42.3316 277.316 42.8002 276.826 43.3829L276.818 43.3932L249.317 78.7488M278.665 92.7834V74.7634L255.819 82.9292L278.665 92.7834ZM277.954 91.7025V75.7724L257.757 82.9912L277.954 91.7025ZM282.978 74.7634V92.7726L305.912 82.9573L282.978 74.7634ZM283.689 75.7722L303.966 83.0168L283.689 91.6951V75.7722ZM283.689 69.6848L303.489 76.7616L283.689 51.2787V69.6848ZM282.978 70.1856L305.548 78.2523L282.978 49.2051V70.1856ZM278.665 70.1856L256.071 78.2609L278.665 49.3129V70.1856ZM277.954 51.3792L258.139 76.7669L277.954 69.6848V51.3792Z" fill="url(#paint7_linear_187_19140)"/>
<path d="M82.4686 147.148C66.5172 147.148 51.5203 140.937 40.2409 129.659C28.9616 118.381 22.7499 103.385 22.7499 87.4357C22.7499 71.486 28.9618 56.491 40.2409 45.2126C51.5201 33.9343 66.5172 27.7235 82.4686 27.7235C98.4201 27.7235 113.417 33.9345 124.696 45.2126C135.976 56.4908 142.187 71.486 142.187 87.4357C142.187 103.385 135.975 118.38 124.696 129.659C113.417 140.937 98.4201 147.148 82.4686 147.148ZM82.4686 35.1875C53.6557 35.1875 30.2147 58.6259 30.2147 87.4357C30.2147 116.245 53.6557 139.684 82.4686 139.684C111.282 139.684 134.723 116.245 134.723 87.4357C134.723 58.6259 111.282 35.1875 82.4686 35.1875Z" fill="url(#paint8_linear_187_19140)"/>
<path d="M97.1927 87.4357C100.557 84.4699 102.686 80.1332 102.686 75.3066C102.686 68.5336 98.498 62.7233 92.5771 60.3189V55.0916C92.5771 52.8588 90.7669 51.0486 88.5337 51.0486C86.3004 51.0486 84.4902 52.8588 84.4902 55.0916V59.1346H76.4033V55.0916C76.4033 52.8588 74.5931 51.0486 72.3598 51.0486C70.1266 51.0486 68.3164 52.8588 68.3164 55.0916V59.1346H60.2295C57.9962 59.1346 56.186 60.9448 56.186 63.1776C56.186 65.4103 57.9962 67.2206 60.2295 67.2206H64.2729V107.651H60.2295C57.9962 107.651 56.186 109.461 56.186 111.694C56.186 113.926 57.9962 115.737 60.2295 115.737H68.3164V119.78C68.3164 122.013 70.1266 123.823 72.3598 123.823C74.5931 123.823 76.4033 122.013 76.4033 119.78V115.737H84.4902V119.78C84.4902 122.013 86.3004 123.823 88.5337 123.823C90.7669 123.823 92.5771 122.013 92.5771 119.78V114.552C98.498 112.148 102.686 106.338 102.686 99.5647C102.686 94.7381 100.557 90.4015 97.1927 87.4357ZM72.3598 67.2206H86.5119C90.9711 67.2206 94.5989 70.8479 94.5989 75.3066C94.5989 79.7653 90.9711 83.3927 86.5119 83.3927H72.3598V67.2206ZM86.5119 107.651H72.3598V91.4787H86.5119C90.9711 91.4787 94.5989 95.106 94.5989 99.5647C94.5989 104.023 90.9711 107.651 86.5119 107.651Z" fill="url(#paint9_linear_187_19140)"/>
</g>
<defs>
<linearGradient id="paint0_linear_187_19140" x1="14.9287" y1="67.0255" x2="359.661" y2="87.7439" gradientUnits="userSpaceOnUse">
<stop stop-color="#1FA2FF"/>
<stop offset="0.515625" stop-color="#12D8FA"/>
<stop offset="1" stop-color="#A6FFCB"/>
</linearGradient>
<linearGradient id="paint1_linear_187_19140" x1="14.9287" y1="67.0255" x2="359.661" y2="87.7439" gradientUnits="userSpaceOnUse">
<stop stop-color="#1FA2FF"/>
<stop offset="0.515625" stop-color="#12D8FA"/>
<stop offset="1" stop-color="#A6FFCB"/>
</linearGradient>
<linearGradient id="paint2_linear_187_19140" x1="14.9287" y1="67.0255" x2="359.661" y2="87.7439" gradientUnits="userSpaceOnUse">
<stop stop-color="#1FA2FF"/>
<stop offset="0.515625" stop-color="#12D8FA"/>
<stop offset="1" stop-color="#A6FFCB"/>
</linearGradient>
<linearGradient id="paint3_linear_187_19140" x1="14.9287" y1="67.0255" x2="359.661" y2="87.7439" gradientUnits="userSpaceOnUse">
<stop stop-color="#1FA2FF"/>
<stop offset="0.515625" stop-color="#12D8FA"/>
<stop offset="1" stop-color="#A6FFCB"/>
</linearGradient>
<linearGradient id="paint4_linear_187_19140" x1="14.9287" y1="67.0255" x2="359.661" y2="87.7439" gradientUnits="userSpaceOnUse">
<stop stop-color="#1FA2FF"/>
<stop offset="0.515625" stop-color="#12D8FA"/>
<stop offset="1" stop-color="#A6FFCB"/>
</linearGradient>
<linearGradient id="paint5_linear_187_19140" x1="14.9287" y1="67.0255" x2="359.661" y2="87.7439" gradientUnits="userSpaceOnUse">
<stop stop-color="#1FA2FF"/>
<stop offset="0.515625" stop-color="#12D8FA"/>
<stop offset="1" stop-color="#A6FFCB"/>
</linearGradient>
<linearGradient id="paint6_linear_187_19140" x1="14.9287" y1="67.0255" x2="359.661" y2="87.7439" gradientUnits="userSpaceOnUse">
<stop stop-color="#1FA2FF"/>
<stop offset="0.515625" stop-color="#12D8FA"/>
<stop offset="1" stop-color="#A6FFCB"/>
</linearGradient>
<linearGradient id="paint7_linear_187_19140" x1="14.9287" y1="67.0255" x2="359.661" y2="87.7439" gradientUnits="userSpaceOnUse">
<stop stop-color="#1FA2FF"/>
<stop offset="0.515625" stop-color="#12D8FA"/>
<stop offset="1" stop-color="#A6FFCB"/>
</linearGradient>
<linearGradient id="paint8_linear_187_19140" x1="14.9287" y1="67.0255" x2="359.661" y2="87.7439" gradientUnits="userSpaceOnUse">
<stop stop-color="#1FA2FF"/>
<stop offset="0.515625" stop-color="#12D8FA"/>
<stop offset="1" stop-color="#A6FFCB"/>
</linearGradient>
<linearGradient id="paint9_linear_187_19140" x1="14.9287" y1="67.0255" x2="359.661" y2="87.7439" gradientUnits="userSpaceOnUse">
<stop stop-color="#1FA2FF"/>
<stop offset="0.515625" stop-color="#12D8FA"/>
<stop offset="1" stop-color="#A6FFCB"/>
</linearGradient>
<clipPath id="clip0_187_19140">
<rect width="364" height="300" fill="white"/>
</clipPath>
</defs>
</svg>
