<svg width="16" height="17" viewBox="0 0 16 17" fill="none" xmlns="http://www.w3.org/2000/svg">
<path d="M8 2.91675C8.49565 2.91673 8.97203 3.10872 9.32915 3.45242C9.68627 3.79612 9.89637 4.2648 9.91533 4.76008L9.91667 4.83341H12.3333C12.4399 4.83376 12.5423 4.87493 12.6194 4.94846C12.6966 5.02198 12.7426 5.12228 12.7481 5.22871C12.7536 5.33515 12.718 5.43963 12.6488 5.52067C12.5796 5.60172 12.482 5.65316 12.376 5.66441L12.3333 5.66675H11.9697L11.402 13.1901C11.3751 13.5463 11.2146 13.8793 10.9526 14.1222C10.6907 14.3651 10.3466 14.5001 9.98933 14.5001H6.01067C5.6534 14.5001 5.30933 14.3651 5.04737 14.1222C4.78541 13.8793 4.6249 13.5463 4.598 13.1901L4.03 5.66675H3.66667C3.56351 5.6668 3.46401 5.62858 3.38741 5.55949C3.31081 5.4904 3.26256 5.39536 3.252 5.29275L3.25 5.25008C3.25 5.03441 3.414 4.85675 3.624 4.83575L3.66667 4.83341H6.08333C6.08333 4.32508 6.28527 3.83757 6.64471 3.47813C7.00416 3.11868 7.49167 2.91675 8 2.91675ZM11.134 5.66675H4.866L5.42933 13.1274C5.44042 13.274 5.50647 13.411 5.61426 13.5111C5.72205 13.6111 5.86363 13.6667 6.01067 13.6667H9.98933C10.1364 13.6667 10.2781 13.6112 10.3859 13.5112C10.4938 13.4112 10.5599 13.2741 10.571 13.1274L11.1343 5.66675H11.134ZM9.08333 7.41675C9.299 7.41675 9.47667 7.58075 9.498 7.79075L9.5 7.83341V11.5001C9.5005 11.6072 9.4597 11.7104 9.38609 11.7883C9.31247 11.8661 9.2117 11.9126 9.10469 11.9181C8.99769 11.9236 8.89268 11.8877 8.81149 11.8178C8.73029 11.7479 8.67914 11.6494 8.66867 11.5427L8.66667 11.5001V7.83341C8.66667 7.60341 8.85333 7.41675 9.08333 7.41675ZM6.91667 7.41675C7.13233 7.41675 7.31 7.58075 7.33133 7.79075L7.33333 7.83341V11.5001C7.33383 11.6072 7.29304 11.7104 7.21942 11.7883C7.14581 11.8661 7.04503 11.9126 6.93803 11.9181C6.83102 11.9236 6.72602 11.8877 6.64482 11.8178C6.56362 11.7479 6.51247 11.6494 6.502 11.5427L6.5 11.5001V7.83341C6.5 7.60341 6.68667 7.41675 6.91667 7.41675ZM8 3.75008C7.72329 3.75006 7.45706 3.85593 7.25592 4.04597C7.05479 4.23601 6.934 4.49581 6.91833 4.77208L6.91667 4.83341H9.08333C9.08333 4.5461 8.9692 4.27055 8.76603 4.06738C8.56287 3.86422 8.28732 3.75008 8 3.75008Z" fill="#D81B1B"/>
</svg>
