<svg width="70" height="70" viewBox="0 0 70 70" fill="none" xmlns="http://www.w3.org/2000/svg">
<path d="M66.4998 0H3.50021C1.56693 0 0 1.56693 0 3.50021V66.4998C0 68.4331 1.56693 70 3.50021 70H66.4998C68.4331 70 70 68.4331 70 66.4998V3.50021C70 1.56693 68.4331 0 66.4998 0ZM9.33319 40.8335V45.5001H6.99989V40.8335H9.33319ZM23.4579 40.8335C24.823 40.826 26.0599 40.0282 26.6302 38.7881C28.1251 35.5554 31.1473 33.2932 34.67 32.7692C37.7125 32.3222 40.7972 33.2424 43.0979 35.2836C43.4611 35.6072 43.5866 36.121 43.4146 36.5755C43.2421 37.0305 42.8069 37.3317 42.3209 37.3333H35C33.7113 37.3333 32.6667 38.3779 32.6667 39.6666V46.6734C32.6667 47.9557 33.7038 48.996 34.9861 48.9998H42.3358C42.8325 48.9987 43.2768 49.3101 43.4456 49.7768C43.624 50.195 43.5134 50.6805 43.1711 50.9801C40.6915 53.2082 37.3002 54.1246 34.0355 53.4485C30.7708 52.7729 28.022 50.5854 26.6302 47.5557C26.0604 46.3103 24.8198 45.5081 23.4499 45.5001H11.6665V40.8335H23.4579ZM4.6666 45.5001H2.3333V40.8335H4.6666V45.5001ZM2.3333 47.8334H23.4499C23.9108 47.8366 24.3263 48.1111 24.5106 48.5336C26.2126 52.2362 29.5734 54.9091 33.5639 55.7343C37.5544 56.5599 41.6998 55.4395 44.7311 52.7158C45.7869 51.7673 46.142 50.2623 45.6224 48.9416C45.1108 47.5723 43.8018 46.6649 42.3396 46.6665L35 46.6734V39.6666H42.3209C43.7778 39.6661 45.0825 38.764 45.5984 37.4011C46.1137 36.0382 45.7324 34.4985 44.6403 33.5335C41.5988 30.8514 37.4679 29.7668 33.5014 30.609C29.535 31.4517 26.2014 34.1215 24.5127 37.8081C24.3295 38.2252 23.9183 38.4959 23.4628 38.5002H2.3333V11.6665H67.6667V15.1667H51.3331C49.8553 15.1726 48.5405 16.1066 48.0481 17.5H45.2854C44.7198 15.8941 43.0782 14.9301 41.4001 15.2185C39.7221 15.5074 38.497 16.9638 38.5002 18.6669H36.1669C34.8782 18.6669 33.8331 19.7115 33.8331 21.0002H17.8498L14.6439 18.8629C14.4532 18.7358 14.2294 18.6674 13.9998 18.6669H9.33319C7.40044 18.6669 5.83351 20.2338 5.83351 22.1666C5.83351 24.0999 7.40044 25.6668 9.33319 25.6668H13.9998C14.2305 25.6663 14.4553 25.5979 14.6476 25.4708L17.8498 23.3335H33.8331C33.8331 24.6222 34.8782 25.6668 36.1669 25.6668H38.5002C38.497 27.3694 39.7221 28.8263 41.4001 29.1147C43.0782 29.4031 44.7198 28.4391 45.2854 26.8332H48.0481C48.5405 28.2265 49.8553 29.1606 51.3331 29.1665H67.6667V58.3335H2.3333V47.8334ZM67.6667 21.0002H53.6669C53.0223 21.0002 52.5 21.5225 52.5 22.1666C52.5 22.8112 53.0223 23.3335 53.6669 23.3335H67.6667V26.8332H51.3331C50.689 26.8332 50.1667 26.3109 50.1667 25.6668V18.6669C50.1667 18.0223 50.689 17.5 51.3331 17.5H67.6667V21.0002ZM45.5001 19.8333H47.8334V24.4999H45.5001V19.8333ZM38.5002 23.3335H36.1669V21.0002H38.5002V23.3335ZM40.8335 18.6669C40.8335 18.0223 41.3558 17.5 41.9999 17.5C42.6445 17.5 43.1668 18.0223 43.1668 18.6669V25.6668C43.1668 26.3109 42.6445 26.8332 41.9999 26.8332C41.3558 26.8332 40.8335 26.3109 40.8335 25.6668V18.6669ZM15.4001 22.1666L13.65 23.3335H9.33319C8.68912 23.3335 8.16681 22.8112 8.16681 22.1666C8.16681 21.5225 8.68912 21.0002 9.33319 21.0002H13.65L15.4001 22.1666ZM2.3333 3.50021C2.3333 2.85561 2.85561 2.3333 3.50021 2.3333H66.4998C67.1444 2.3333 67.6667 2.85561 67.6667 3.50021V9.33319H2.3333V3.50021ZM67.6667 66.4998C67.6667 67.1444 67.1444 67.6667 66.4998 67.6667H3.50021C2.85561 67.6667 2.3333 67.1444 2.3333 66.4998V60.6668H67.6667V66.4998Z" fill="url(#paint0_linear_187_19528)"/>
<path d="M6.99989 5.83351C6.99989 6.47758 6.47758 6.99989 5.83351 6.99989C5.1889 6.99989 4.6666 6.47758 4.6666 5.83351C4.6666 5.1889 5.1889 4.6666 5.83351 4.6666C6.47758 4.6666 6.99989 5.1889 6.99989 5.83351Z" fill="url(#paint1_linear_187_19528)"/>
<path d="M11.6665 5.83351C11.6665 6.47758 11.1442 6.99989 10.5001 6.99989C9.8555 6.99989 9.33319 6.47758 9.33319 5.83351C9.33319 5.1889 9.8555 4.6666 10.5001 4.6666C11.1442 4.6666 11.6665 5.1889 11.6665 5.83351Z" fill="url(#paint2_linear_187_19528)"/>
<path d="M16.3331 5.83351C16.3331 6.47758 15.8108 6.99989 15.1667 6.99989C14.5221 6.99989 13.9998 6.47758 13.9998 5.83351C13.9998 5.1889 14.5221 4.6666 15.1667 4.6666C15.8108 4.6666 16.3331 5.1889 16.3331 5.83351Z" fill="url(#paint3_linear_187_19528)"/>
<path d="M53.6669 39.6666H51.3331C50.0444 39.6666 48.9998 40.7112 48.9998 41.9999V44.3332C48.9998 45.6219 50.0444 46.6665 51.3331 46.6665H53.6669C54.9556 46.6665 56.0002 45.6219 56.0002 44.3332V41.9999C56.0002 40.7112 54.9556 39.6666 53.6669 39.6666ZM51.3331 44.3332V41.9999H53.6669V44.3332H51.3331Z" fill="url(#paint4_linear_187_19528)"/>
<path d="M63.0001 39.6666H60.6668C59.3781 39.6666 58.3335 40.7112 58.3335 41.9999V44.3332C58.3335 45.6219 59.3781 46.6665 60.6668 46.6665H63.0001C64.2888 46.6665 65.3334 45.6219 65.3334 44.3332V41.9999C65.3334 40.7112 64.2888 39.6666 63.0001 39.6666ZM60.6668 44.3332V41.9999H63.0001V44.3332H60.6668Z" fill="url(#paint5_linear_187_19528)"/>
<defs>
<linearGradient id="paint0_linear_187_19528" x1="-1.00689e-06" y1="9.10001" x2="72.2588" y2="13.1005" gradientUnits="userSpaceOnUse">
<stop stop-color="#1FA2FF"/>
<stop offset="0.515625" stop-color="#12D8FA"/>
<stop offset="1" stop-color="#A6FFCB"/>
</linearGradient>
<linearGradient id="paint1_linear_187_19528" x1="-1.00689e-06" y1="9.10001" x2="72.2588" y2="13.1005" gradientUnits="userSpaceOnUse">
<stop stop-color="#1FA2FF"/>
<stop offset="0.515625" stop-color="#12D8FA"/>
<stop offset="1" stop-color="#A6FFCB"/>
</linearGradient>
<linearGradient id="paint2_linear_187_19528" x1="-1.00689e-06" y1="9.10001" x2="72.2588" y2="13.1005" gradientUnits="userSpaceOnUse">
<stop stop-color="#1FA2FF"/>
<stop offset="0.515625" stop-color="#12D8FA"/>
<stop offset="1" stop-color="#A6FFCB"/>
</linearGradient>
<linearGradient id="paint3_linear_187_19528" x1="-1.00689e-06" y1="9.10001" x2="72.2588" y2="13.1005" gradientUnits="userSpaceOnUse">
<stop stop-color="#1FA2FF"/>
<stop offset="0.515625" stop-color="#12D8FA"/>
<stop offset="1" stop-color="#A6FFCB"/>
</linearGradient>
<linearGradient id="paint4_linear_187_19528" x1="-1.00689e-06" y1="9.10001" x2="72.2588" y2="13.1005" gradientUnits="userSpaceOnUse">
<stop stop-color="#1FA2FF"/>
<stop offset="0.515625" stop-color="#12D8FA"/>
<stop offset="1" stop-color="#A6FFCB"/>
</linearGradient>
<linearGradient id="paint5_linear_187_19528" x1="-1.00689e-06" y1="9.10001" x2="72.2588" y2="13.1005" gradientUnits="userSpaceOnUse">
<stop stop-color="#1FA2FF"/>
<stop offset="0.515625" stop-color="#12D8FA"/>
<stop offset="1" stop-color="#A6FFCB"/>
</linearGradient>
</defs>
</svg>
