<svg width="72" height="29" viewBox="0 0 72 29" fill="none" xmlns="http://www.w3.org/2000/svg">
<path d="M33.5802 13.9907V22.3849H30.9583V1.65484H37.9122C38.7422 1.63723 39.5675 1.78674 40.3404 2.09477C41.1132 2.40279 41.8184 2.86321 42.4151 3.44947C43.0179 4.00013 43.4976 4.67546 43.822 5.43007C44.1465 6.18467 44.3081 7.00107 44.2961 7.8244C44.3134 8.65213 44.1542 9.47386 43.8295 10.2333C43.5049 10.9927 43.0224 11.6718 42.4151 12.2241C41.1991 13.4018 39.6981 13.9901 37.9122 13.989H33.5802V13.9907ZM33.5802 4.20702V11.4434H37.9773C38.4594 11.4579 38.9391 11.3701 39.3858 11.1856C39.8325 11.001 40.2364 10.7238 40.5716 10.3716C40.905 10.0424 41.1701 9.64854 41.3511 9.21344C41.5321 8.77834 41.6253 8.3108 41.6253 7.83846C41.6253 7.36612 41.5321 6.89858 41.3511 6.46348C41.1701 6.02838 40.905 5.63456 40.5716 5.3053C40.2406 4.94572 39.8381 4.66171 39.3909 4.47208C38.9436 4.28245 38.4618 4.19153 37.9773 4.20536H33.5802V4.20702Z" fill="#5F6368"/>
<path d="M50.3379 7.7384C52.2759 7.7384 53.8057 8.26439 54.9272 9.31636C56.0487 10.3683 56.6089 11.8106 56.6079 13.6433V22.3849H54.0999V20.4166H53.9859C52.9002 22.0376 51.4562 22.8481 49.6539 22.8481C48.1155 22.8481 46.8284 22.3849 45.7926 21.4587C45.2956 21.0335 44.8982 20.5011 44.6294 19.9002C44.3606 19.2993 44.2272 18.6451 44.239 17.9852C44.239 16.5175 44.7851 15.3503 45.8773 14.4836C46.9695 13.6169 48.4276 13.1824 50.2516 13.1802C51.8085 13.1802 53.0907 13.4696 54.0983 14.0486V13.4399C54.1012 12.99 54.0056 12.5451 53.8183 12.1374C53.6309 11.7298 53.3567 11.3695 53.0153 11.0829C52.3219 10.4475 51.4183 10.1008 50.4845 10.112C49.0199 10.112 47.8609 10.7394 47.0075 11.9942L44.6982 10.5172C45.9685 8.66467 47.8484 7.7384 50.3379 7.7384ZM46.9456 18.0431C46.9439 18.382 47.0219 18.7164 47.1732 19.0185C47.3244 19.3206 47.5446 19.5816 47.8153 19.7798C48.3952 20.2431 49.1149 20.4885 49.8526 20.4745C50.959 20.4726 52.0196 20.0253 52.8019 19.2307C53.6705 18.4003 54.1048 17.4261 54.1048 16.308C53.2872 15.6464 52.1473 15.3156 50.6848 15.3156C49.6197 15.3156 48.7316 15.5763 48.0205 16.0979C47.3023 16.6272 46.9456 17.2706 46.9456 18.0431Z" fill="#5F6368"/>
<path d="M71.0044 8.20154L62.2493 28.6372H59.5426L62.7916 21.4868L57.0347 8.20154H59.8846L64.0456 18.3904H64.1026L68.1495 8.20154H71.0044Z" fill="#5F6368"/>
<path d="M22.9849 12.1812C22.9859 11.3696 22.9183 10.5595 22.783 9.75964H11.7251V14.3463H18.0585C17.9289 15.0788 17.6546 15.7772 17.2521 16.3991C16.8497 17.0211 16.3273 17.5539 15.7167 17.9653V20.9426H19.4965C21.7097 18.8701 22.9849 15.8052 22.9849 12.1812Z" fill="#4285F4"/>
<path d="M11.725 23.8189C14.8893 23.8189 17.5536 22.7636 19.4965 20.9442L15.7166 17.9669C14.6645 18.6914 13.3096 19.1049 11.725 19.1049C8.66659 19.1049 6.07068 17.0109 5.1424 14.1891H1.24854V17.2573C2.22447 19.2297 3.72097 20.8878 5.57094 22.0465C7.42092 23.2052 9.55156 23.8188 11.725 23.8189Z" fill="#34A853"/>
<path d="M5.14243 14.1892C4.65169 12.7105 4.65169 11.1093 5.14243 9.63063V6.56238H1.24857C0.427573 8.22164 0 10.0529 0 11.9099C0 13.7669 0.427573 15.5982 1.24857 17.2574L5.14243 14.1892Z" fill="#FBBC04"/>
<path d="M11.725 4.71479C13.3972 4.68705 15.013 5.32873 16.2231 6.50116L19.5697 3.10211C17.4476 1.07769 14.6362 -0.0337534 11.725 0.000781347C9.55157 0.000881955 7.42092 0.614521 5.57094 1.77319C3.72097 2.93186 2.22447 4.58995 1.24854 6.56236L5.1424 9.6306C6.07068 6.80881 8.66659 4.71479 11.725 4.71479Z" fill="#EA4335"/>
</svg>
