<svg width="14" height="14" viewBox="0 0 14 14" fill="none" xmlns="http://www.w3.org/2000/svg">
<path d="M12.6191 3.87735C12.4359 3.45302 12.1716 3.06851 11.8412 2.74532C11.5105 2.42117 11.1207 2.16357 10.6928 1.98653C10.2491 1.80223 9.77321 1.70789 9.29277 1.70899C8.61875 1.70899 7.96113 1.89356 7.38965 2.2422C7.25293 2.32559 7.12305 2.4172 7 2.517C6.87695 2.4172 6.74707 2.32559 6.61035 2.2422C6.03887 1.89356 5.38125 1.70899 4.70723 1.70899C4.22187 1.70899 3.75156 1.80196 3.30723 1.98653C2.87793 2.16427 2.49102 2.41993 2.15879 2.74532C1.82793 3.06814 1.56362 3.45275 1.38086 3.87735C1.19082 4.31895 1.09375 4.78789 1.09375 5.27051C1.09375 5.72578 1.18672 6.20019 1.37129 6.68281C1.52578 7.08613 1.74727 7.50449 2.03027 7.92695C2.47871 8.5955 3.09531 9.29276 3.86094 9.9996C5.12969 11.1713 6.38613 11.9806 6.43945 12.0135L6.76348 12.2213C6.90703 12.3129 7.0916 12.3129 7.23516 12.2213L7.55918 12.0135C7.6125 11.9793 8.86758 11.1713 10.1377 9.9996C10.9033 9.29276 11.5199 8.5955 11.9684 7.92695C12.2514 7.50449 12.4742 7.08613 12.6273 6.68281C12.8119 6.20019 12.9049 5.72578 12.9049 5.27051C12.9063 4.78789 12.8092 4.31895 12.6191 3.87735V3.87735ZM7 11.1398C7 11.1398 2.13281 8.02128 2.13281 5.27051C2.13281 3.87735 3.28535 2.74805 4.70723 2.74805C5.70664 2.74805 6.57344 3.30586 7 4.12071C7.42656 3.30586 8.29336 2.74805 9.29277 2.74805C10.7146 2.74805 11.8672 3.87735 11.8672 5.27051C11.8672 8.02128 7 11.1398 7 11.1398Z" fill="#180269"/>
</svg>
