<svg width="18" height="18" viewBox="0 0 18 18" fill="none" xmlns="http://www.w3.org/2000/svg">
<path d="M9.00022 0.00904189C5.31384 0.00904189 1.81324 -0.318626 0.476156 3.11022C-0.0761422 4.52639 0.00406296 6.36559 0.00406296 8.9991C0.00406296 11.31 -0.0700506 13.482 0.476156 14.887C1.8102 18.3178 5.33922 17.9892 8.99819 17.9892C12.5282 17.9892 16.1679 18.3564 17.5212 14.887C18.0746 13.4566 17.9933 11.6448 17.9933 8.9991C17.9933 5.48707 18.1873 3.21978 16.4826 1.51753C14.7567 -0.207036 12.4226 0.00904189 8.99616 0.00904189H9.00022ZM8.19411 1.62912C15.8836 1.61695 16.8623 0.76278 16.3222 12.6288C16.1303 16.8256 12.9323 16.365 9.00124 16.365C1.83355 16.365 1.62745 16.1601 1.62745 8.99504C1.62745 1.7468 2.196 1.63318 8.19411 1.62709V1.62912ZM13.8024 3.12137C13.2064 3.12137 12.7232 3.60425 12.7232 4.19974C12.7232 4.79522 13.2064 5.2781 13.8024 5.2781C14.3983 5.2781 14.8816 4.79522 14.8816 4.19974C14.8816 3.60425 14.3983 3.12137 13.8024 3.12137V3.12137ZM9.00022 4.38234C6.44889 4.38234 4.38082 6.44979 4.38082 8.9991C4.38082 11.5484 6.44889 13.6148 9.00022 13.6148C11.5516 13.6148 13.6186 11.5484 13.6186 8.9991C13.6186 6.44979 11.5516 4.38234 9.00022 4.38234V4.38234ZM9.00022 6.00241C12.9648 6.00241 12.9699 11.9958 9.00022 11.9958C5.03667 11.9958 5.03058 6.00241 9.00022 6.00241Z" fill="var(--social, #180269)"/>
</svg>
