<svg width="70" height="70" viewBox="0 0 70 70" fill="none" xmlns="http://www.w3.org/2000/svg">
<path d="M52.5001 20.4167L67.0834 26.2501V64.1667L46.6667 55.4167M52.5001 20.4167C52.5001 9.47925 43.7501 2.91675 35.0001 2.91675C26.2501 2.91675 17.5001 9.47925 17.5001 20.4167M52.5001 20.4167C52.5001 33.5417 35.0001 47.463 35.0001 47.463C35.0001 47.463 17.5001 33.5417 17.5001 20.4167M46.6667 55.4167L23.3334 64.1667M46.6667 55.4167V35.0001M23.3334 64.1667L2.91675 55.4167V17.5001L17.5001 20.4167M23.3334 64.1667V35.0001M37.9167 20.4167C37.9167 19.6432 37.6095 18.9013 37.0625 18.3544C36.5155 17.8074 35.7736 17.5001 35.0001 17.5001C34.2265 17.5001 33.4847 17.8074 32.9377 18.3544C32.3907 18.9013 32.0834 19.6432 32.0834 20.4167C32.0834 21.1903 32.3907 21.9322 32.9377 22.4791C33.4847 23.0261 34.2265 23.3334 35.0001 23.3334C35.7736 23.3334 36.5155 23.0261 37.0625 22.4791C37.6095 21.9322 37.9167 21.1903 37.9167 20.4167Z" fill="none" stroke="url(#paint0_linear_187_18966)" stroke-width="4"/>
<defs>
<linearGradient id="paint0_linear_187_18966" x1="2.91675" y1="10.8793" x2="69.1342" y2="14.7198" gradientUnits="userSpaceOnUse">
<stop stop-color="#1FA2FF"/>
<stop offset="0.515625" stop-color="#12D8FA"/>
<stop offset="1" stop-color="#A6FFCB"/>
</linearGradient>
</defs>
</svg>
