<svg width="65" height="40" viewBox="0 0 65 40" fill="none" xmlns="http://www.w3.org/2000/svg">
<path d="M65 19.9432C65 30.8864 56.3 39.8864 45.5 39.8864C34.8 39.8864 26 30.8864 26 19.9432C26 9 34.7 0 45.4 0C56.3 0 65 9 65 19.9432Z" fill="#F9B50B"/>
<path d="M38.9 20.0455C38.9 18.6136 38.7 17.1818 38.5 15.8523H26.5C26.6 15.1364 26.8 14.5227 27 13.7045H37.7C37.5 12.9886 37.2 12.2727 36.9 11.5568H27.8C28.1 10.8409 28.5 10.2273 28.9 9.40909H35.8C35.4 8.69318 34.9 7.97727 34.3 7.26136H30.5C31.1 6.54545 31.7 5.93182 32.5 5.21591C29.1 1.94318 24.5 0 19.4 0C8.8 0.306818 0 9 0 19.9432C0 30.8864 8.7 39.8864 19.5 39.8864C24.6 39.8864 29.1 37.8409 32.6 34.6705C33.3 34.0568 33.9 33.3409 34.6 32.5227H30.6C30.1 31.9091 29.6 31.1932 29.2 30.4773H36C36.4 29.8636 36.8 29.1477 37.1 28.3295H28C27.7 27.7159 27.4 27 27.2 26.1818H37.9C38.5 24.3409 38.9 22.2955 38.9 20.0455Z" fill="#C8191C"/>
<path d="M26.3999 25.0568L26.6999 23.2159C26.5999 23.2159 26.3999 23.3182 26.1999 23.3182C25.4999 23.3182 25.3999 22.9091 25.4999 22.7045L26.0999 19.0227H27.1999L27.4999 16.9773H26.4999L26.6999 15.75H24.5999C24.5999 15.75 23.3999 22.7045 23.3999 23.5227C23.3999 24.75 24.0999 25.3636 25.0999 25.3636C25.6999 25.3636 26.1999 25.1591 26.3999 25.0568Z" fill="white"/>
<path d="M27.1001 21.6818C27.1001 24.6477 29.1001 25.3637 30.7001 25.3637C32.2001 25.3637 32.9001 25.0568 32.9001 25.0568L33.3001 23.0114C33.3001 23.0114 32.2001 23.5227 31.1001 23.5227C28.8001 23.5227 29.2001 21.7841 29.2001 21.7841H33.4001C33.4001 21.7841 33.7001 20.4546 33.7001 19.8409C33.7001 18.5114 33.0001 16.7727 30.7001 16.7727C28.7001 16.6705 27.1001 19.0227 27.1001 21.6818ZM30.7001 18.6137C31.8001 18.6137 31.6001 19.9432 31.6001 20.0455H29.3001C29.4001 19.9432 29.6001 18.6137 30.7001 18.6137Z" fill="white"/>
<path d="M43.8001 25.0568L44.2001 22.7046C44.2001 22.7046 43.2001 23.2159 42.4001 23.2159C41.0001 23.2159 40.3001 22.0909 40.3001 20.7614C40.3001 18.2046 41.5001 16.875 43.0001 16.875C44.0001 16.875 44.9001 17.4887 44.9001 17.4887L45.2001 15.2387C45.2001 15.2387 44.0001 14.7273 42.8001 14.7273C40.4001 14.7273 38.1001 16.875 38.1001 20.8637C38.1001 23.5227 39.3001 25.2614 41.8001 25.2614C42.7001 25.3637 43.8001 25.0568 43.8001 25.0568Z" fill="white"/>
<path d="M15.1 16.6704C13.7 16.6704 12.6 17.0795 12.6 17.0795L12.3 18.9204C12.3 18.9204 13.2 18.5113 14.6 18.5113C15.3 18.5113 15.9 18.6136 15.9 19.2272C15.9 19.6363 15.8 19.7386 15.8 19.7386H14.9C13.1 19.7386 11.2 20.4545 11.2 22.909C11.2 24.8522 12.4 25.2613 13.2 25.2613C14.6 25.2613 15.3 24.3409 15.4 24.3409L15.3 25.159H17L17.8 19.3295C17.8 16.7727 15.8 16.6704 15.1 16.6704ZM15.5 21.3749C15.5 21.6818 15.3 23.4204 14.1 23.4204C13.5 23.4204 13.3 22.909 13.3 22.6022C13.3 22.0909 13.6 21.3749 15.2 21.3749C15.4 21.3749 15.5 21.3749 15.5 21.3749Z" fill="white"/>
<path d="M19.8 25.2613C20.3 25.2613 22.9 25.3636 22.9 22.4999C22.9 19.8408 20.4 20.3522 20.4 19.3295C20.4 18.8181 20.8 18.6136 21.5 18.6136C21.8 18.6136 22.9 18.7158 22.9 18.7158L23.2 16.7727C23.2 16.7727 22.5 16.5681 21.2 16.5681C19.7 16.5681 18.1 17.1818 18.1 19.3295C18.1 21.784 20.7 21.5795 20.7 22.4999C20.7 23.1136 20 23.2158 19.5 23.2158C18.6 23.2158 17.6 22.909 17.6 22.909L17.3 24.8522C17.5 25.0568 18.1 25.2613 19.8 25.2613Z" fill="white"/>
<path d="M61.0001 15.0341L60.6001 17.8977C60.6001 17.8977 59.8001 16.875 58.6001 16.875C56.7001 16.875 55.1001 19.2272 55.1001 21.9886C55.1001 23.7272 55.9001 25.4659 57.7001 25.4659C58.9001 25.4659 59.7001 24.6477 59.7001 24.6477L59.6001 25.3636H61.7001L63.2001 15.2386L61.0001 15.0341ZM60.0001 20.5568C60.0001 21.6818 59.5001 23.2159 58.3001 23.2159C57.6001 23.2159 57.2001 22.6022 57.2001 21.4772C57.2001 19.7386 57.9001 18.7159 58.9001 18.7159C59.6001 18.8182 60.0001 19.3295 60.0001 20.5568Z" fill="white"/>
<path d="M3.80005 25.1591L5.00005 17.5909L5.20005 25.1591H6.60005L9.30005 17.5909L8.20005 25.1591H10.4001L12.1001 15.0341H8.70005L6.60005 21.2727L6.50005 15.0341H3.50005L1.80005 25.1591H3.80005Z" fill="white"/>
<path d="M35.8 25.1591C36.4 21.6818 36.5 18.8182 38 19.3295C38.2 18 38.5 17.3864 38.7 16.875H38.3C37.4 16.875 36.6 18.1023 36.6 18.1023L36.8 16.9773H34.8L33.5 25.1591H35.8Z" fill="white"/>
<path d="M48.6 16.6704C47.2 16.6704 46.0999 17.0795 46.0999 17.0795L45.8 18.9204C45.8 18.9204 46.7 18.5113 48.1 18.5113C48.8 18.5113 49.4 18.6136 49.4 19.2272C49.4 19.6363 49.3 19.7386 49.3 19.7386H48.4C46.6 19.7386 44.7 20.4545 44.7 22.909C44.7 24.8522 45.9 25.2613 46.7 25.2613C48.1 25.2613 48.8 24.3409 48.9 24.3409L48.8 25.159H50.7L51.5 19.3295C51.5 16.7727 49.3 16.6704 48.6 16.6704ZM49.1 21.3749C49.1 21.6818 48.9 23.4204 47.7 23.4204C47.1 23.4204 46.9 22.909 46.9 22.6022C46.9 22.0909 47.2 21.3749 48.8 21.3749C49 21.3749 49 21.3749 49.1 21.3749Z" fill="white"/>
<path d="M53.1 25.1591C53.7 21.6818 53.8 18.8182 55.3 19.3295C55.5 18 55.8 17.3864 56 16.875H55.6C54.7 16.875 53.9 18.1023 53.9 18.1023L54.1 16.9773H52.1L50.8 25.1591H53.1Z" fill="white"/>
</svg>
