<svg width="918" height="440" viewBox="0 0 918 440" fill="none" xmlns="http://www.w3.org/2000/svg">
<path d="M462.999 185.228C545.412 185.228 612.221 156.398 612.221 120.835C612.221 85.2716 545.412 56.4419 462.999 56.4419C380.586 56.4419 313.777 85.2716 313.777 120.835C313.777 156.398 380.586 185.228 462.999 185.228Z" stroke="#29ABE2" stroke-width="0.5995" stroke-miterlimit="10"/>
<path d="M577.672 108.324C577.672 135.553 526.216 157.631 462.999 157.631C399.782 157.631 348.326 135.553 348.326 108.324C348.326 81.0951 399.782 59.0176 462.999 59.0176C526.216 59.0176 577.672 81.0951 577.672 108.324Z" stroke="#29ABE2" stroke-width="1.2267" stroke-miterlimit="10"/>
<path d="M463 271.698C624.984 271.698 756.298 215.027 756.298 145.12C756.298 75.2129 624.984 18.542 463 18.542C301.015 18.542 169.701 75.2129 169.701 145.12C169.701 215.027 301.015 271.698 463 271.698Z" stroke="#29ABE2" stroke-width="1.5986" stroke-miterlimit="10"/>
<path d="M463.001 289.728C345.387 289.728 234.757 262.499 174.48 219.08L247.621 200.314C292.461 233.062 375.158 253.3 463.001 253.3C500.122 253.3 536.142 249.989 569.588 242.997L605.975 276.114C561.134 284.945 512.986 289.728 463.001 289.728Z" stroke="#29ABE2" stroke-width="0.7993" stroke-miterlimit="10"/>
<path d="M744.536 223.496L673.232 203.626C699.328 186.332 712.927 166.094 712.927 145.12H798.197C798.197 173.085 779.82 200.314 744.536 223.496Z" stroke="#29ABE2" stroke-width="0.7993" stroke-miterlimit="10"/>
<path d="M255.34 85.1426L184.771 64.5369C247.254 24.7973 351.268 0.879883 462.633 0.879883C557.826 0.879883 648.609 18.5419 712.194 48.7146L648.977 73.3679C601.564 50.5544 533.569 37.6758 462.633 37.6758C379.569 37.3079 302.017 55.3379 255.34 85.1426Z" stroke="#29ABE2" stroke-width="0.7993" stroke-miterlimit="10"/>
<path d="M463.002 212.457C561.451 212.457 641.26 178.026 641.26 135.553C641.26 93.0806 561.451 58.6497 463.002 58.6497C364.553 58.6497 284.744 93.0806 284.744 135.553C284.744 178.026 364.553 212.457 463.002 212.457Z" stroke="#29ABE2" stroke-width="1.515" stroke-miterlimit="10" stroke-dasharray="2.27 2.27"/>
<path d="M463.001 226.807C579.922 226.807 674.705 185.951 674.705 135.553C674.705 85.1549 579.922 44.2991 463.001 44.2991C346.08 44.2991 251.297 85.1549 251.297 135.553C251.297 185.951 346.08 226.807 463.001 226.807Z" stroke="#29ABE2" stroke-miterlimit="10"/>
<path d="M463.736 241.894C592.431 241.894 696.758 196.919 696.758 141.441C696.758 85.9619 592.431 40.9875 463.736 40.9875C335.042 40.9875 230.715 85.9619 230.715 141.441C230.715 196.919 335.042 241.894 463.736 241.894Z" stroke="#29ABE2" stroke-width="0.5995" stroke-miterlimit="10"/>
<path d="M462.999 346.762C671.67 346.762 840.832 273.946 840.832 184.124C840.832 94.3012 671.67 21.4856 462.999 21.4856C254.328 21.4856 85.166 94.3012 85.166 184.124C85.166 273.946 254.328 346.762 462.999 346.762Z" stroke="#29ABE2" stroke-width="0.9714" stroke-miterlimit="10"/>
<path d="M462.999 403.796C693.999 403.796 881.261 323.073 881.261 223.496C881.261 123.918 693.999 43.1953 462.999 43.1953C231.999 43.1953 44.7363 123.918 44.7363 223.496C44.7363 323.073 231.999 403.796 462.999 403.796Z" stroke="#29ABE2" stroke-width="1.0759" stroke-miterlimit="10"/>
<path d="M463 439.12C718.156 439.12 925 349.995 925 240.054C925 130.113 718.156 40.9875 463 40.9875C207.844 40.9875 1 130.113 1 240.054C1 349.995 207.844 439.12 463 439.12Z" stroke="#29ABE2" stroke-width="0.5706" stroke-miterlimit="10" stroke-dasharray="2.16 2.16"/>
<path d="M463 325.42C658.883 325.42 817.678 257.053 817.678 172.717C817.678 88.3813 658.883 20.0137 463 20.0137C267.117 20.0137 108.322 88.3813 108.322 172.717C108.322 257.053 267.117 325.42 463 325.42Z" stroke="#29ABE2" stroke-width="0.5995" stroke-miterlimit="10" stroke-dasharray="2.27 2.27"/>
<path d="M447.932 9.71094L450.504 29.9487" stroke="#29ABE2" stroke-width="1.2267" stroke-miterlimit="10"/>
<path d="M414.117 11.1824L421.101 31.0522" stroke="#29ABE2" stroke-width="1.2267" stroke-miterlimit="10"/>
<path d="M380.303 14.1252L392.799 33.995" stroke="#29ABE2" stroke-width="1.2267" stroke-miterlimit="10"/>
<path d="M347.592 18.9099L364.866 37.6759" stroke="#29ABE2" stroke-width="1.2267" stroke-miterlimit="10"/>
<path d="M316.352 25.1653L338.404 42.8273" stroke="#29ABE2" stroke-width="1.2267" stroke-miterlimit="10"/>
<path d="M286.947 32.5244L313.41 49.4505" stroke="#29ABE2" stroke-width="1.2267" stroke-miterlimit="10"/>
<path d="M259.75 41.7234L289.888 57.1777" stroke="#29ABE2" stroke-width="1.2267" stroke-miterlimit="10"/>
<path d="M234.758 51.6584L268.572 65.6409" stroke="#29ABE2" stroke-width="1.2267" stroke-miterlimit="10"/>
<path d="M212.336 63.0652L249.825 75.2079" stroke="#29ABE2" stroke-width="1.2267" stroke-miterlimit="10"/>
<path d="M193.225 75.2078L233.287 85.5106" stroke="#29ABE2" stroke-width="1.2267" stroke-miterlimit="10"/>
<path d="M177.053 88.4543L219.688 96.9174" stroke="#29ABE2" stroke-width="1.2267" stroke-miterlimit="10"/>
<path d="M164.188 102.069L209.028 108.324" stroke="#29ABE2" stroke-width="1.2267" stroke-miterlimit="10"/>
<path d="M155 116.419L200.943 120.466" stroke="#29ABE2" stroke-width="1.2267" stroke-miterlimit="10"/>
<path d="M158.307 180.076L203.882 174.925" stroke="#29ABE2" stroke-width="1.2267" stroke-miterlimit="10"/>
<path d="M168.965 194.059L213.07 186.699" stroke="#29ABE2" stroke-width="1.2267" stroke-miterlimit="10"/>
<path d="M183.299 207.673L224.831 198.106" stroke="#29ABE2" stroke-width="1.2267" stroke-miterlimit="10"/>
<path d="M200.574 220.184L239.901 209.145" stroke="#29ABE2" stroke-width="1.2267" stroke-miterlimit="10"/>
<path d="M776.146 131.138L729.469 133.345" stroke="#29ABE2" stroke-width="1.2267" stroke-miterlimit="10"/>
<path d="M770.634 116.419L724.691 120.834" stroke="#29ABE2" stroke-width="1.2267" stroke-miterlimit="10"/>
<path d="M761.813 102.069L716.973 108.692" stroke="#29ABE2" stroke-width="1.2267" stroke-miterlimit="10"/>
<path d="M748.949 88.4543L706.314 96.9174" stroke="#29ABE2" stroke-width="1.2267" stroke-miterlimit="10"/>
<path d="M733.144 75.2078L692.715 85.8786" stroke="#29ABE2" stroke-width="1.2267" stroke-miterlimit="10"/>
<path d="M683.158 240.054L746.375 267.283" stroke="#29ABE2" stroke-width="0.5995" stroke-miterlimit="10"/>
<path d="M151.326 145.12H62.3809" stroke="#29ABE2" stroke-width="0.5995" stroke-miterlimit="10"/>
</svg>
