<svg width="78" height="20" viewBox="0 0 78 20" fill="none" xmlns="http://www.w3.org/2000/svg">
<path d="M29.4 8.28402C29.2 9.81812 28 9.81812 26.9001 9.81812H26.3L26.8 6.8522C26.8 6.64766 27 6.54539 27.2 6.54539H27.5001C28.3001 6.54539 29 6.54539 29.4 6.95448C29.4 7.36357 29.4 7.77266 29.4 8.28402ZM28.9 4.19312H24.6C24.3 4.19312 24.1001 4.39766 24.0001 4.70448L22.3 15.9545C22.3 16.159 22.4001 16.3636 22.7001 16.3636H24.7001C25.0001 16.3636 25.2 16.159 25.3 15.8522L25.8 12.784C25.8 12.4772 26.1001 12.2727 26.4001 12.2727H27.8C30.6 12.2727 32.2 10.8408 32.7 8.07948C32.9 6.85221 32.7 5.93175 32.2 5.21584C31.4 4.60221 30.3 4.19312 28.9 4.19312Z" fill="#263577"/>
<path d="M38.8 12.375C38.6 13.6023 37.7 14.4205 36.5 14.4205C35.9 14.4205 35.4 14.216 35.1 13.8069C34.8 13.3978 34.7 12.8864 34.8 12.375C35 11.1478 35.9 10.3296 37.1 10.3296C37.7 10.3296 38.2 10.5341 38.5 10.9432C38.7 11.25 38.9 11.7614 38.8 12.375ZM41.6 8.28414H39.6C39.4 8.28414 39.3 8.38641 39.2 8.59095L39.1 9.20459L39 9.00005C38.6 8.38641 37.6 8.07959 36.6 8.07959C34.3 8.07959 32.4 9.81823 32 12.2728C31.8 13.5 32.1 14.625 32.8 15.4432C33.4 16.1591 34.3 16.466 35.4 16.466C37.2 16.466 38.2 15.2387 38.2 15.2387L38.1 15.8523C38.1 16.0569 38.2 16.2614 38.5 16.2614H40.3C40.6 16.2614 40.8 16.0569 40.9 15.7501L42 8.59095C42 8.48868 41.9 8.28414 41.6 8.28414Z" fill="#263577"/>
<path d="M52.5 8.28406H50.4C50.2 8.28406 50 8.38633 49.9 8.59088L47.1 12.8863L45.9 8.79542C45.8 8.4886 45.6 8.38633 45.3 8.38633H43.3C43.1 8.38633 42.9 8.59087 43 8.89769L45.3 15.6477L43.2 18.7159C43 18.9204 43.2 19.3295 43.5 19.3295H45.6C45.8 19.3295 46 19.2273 46.1 19.0227L52.9 8.89769C53 8.59087 52.8 8.28406 52.5 8.28406Z" fill="#263577"/>
<path d="M59.7999 8.28402C59.5999 9.81812 58.4 9.81812 57.3 9.81812H56.6999L57.1999 6.8522C57.1999 6.64766 57.4 6.54539 57.6 6.54539H57.9C58.7 6.54539 59.4 6.54539 59.7999 6.95448C59.8999 7.36357 59.8999 7.77266 59.7999 8.28402ZM59.3 4.19312H55C54.7 4.19312 54.5 4.39766 54.4 4.70448L52.7 15.9545C52.7 16.159 52.8 16.3636 53.1 16.3636H55.3C55.5 16.3636 55.6999 16.2613 55.6999 15.9545L56.1999 12.784C56.1999 12.4772 56.5 12.2727 56.8 12.2727H58.1999C60.9999 12.2727 62.6 10.8408 63.1 8.07948C63.3 6.85221 63.1 5.93175 62.6 5.21584C61.9 4.60221 60.7999 4.19312 59.3 4.19312Z" fill="#2199D6"/>
<path d="M69.3 12.375C69.1 13.6023 68.2 14.4205 67 14.4205C66.4 14.4205 65.9 14.216 65.6 13.8069C65.3 13.3978 65.2 12.8864 65.3 12.375C65.5 11.1478 66.4 10.3296 67.6 10.3296C68.2 10.3296 68.7 10.5341 69 10.9432C69.2 11.25 69.4 11.7614 69.3 12.375ZM72.1 8.28414H70.1C69.9 8.28414 69.8 8.38641 69.7 8.59095L69.6 9.20459L69.5 9.00005C69.1 8.38641 68.1 8.07959 67.1 8.07959C64.8 8.07959 62.9 9.81823 62.5 12.2728C62.3 13.5 62.6 14.625 63.3 15.4432C63.9 16.1591 64.8 16.466 65.9 16.466C67.7 16.466 68.7 15.2387 68.7 15.2387L68.6 15.8523C68.6 16.0569 68.7 16.2614 69 16.2614H70.8C71.1 16.2614 71.3 16.0569 71.4 15.7501L72.5 8.59095C72.5 8.48868 72.3 8.28414 72.1 8.28414Z" fill="#2199D6"/>
<path d="M74.5 4.49993L72.7 15.9545C72.7 16.159 72.8 16.3636 73.1 16.3636H74.9C75.2 16.3636 75.4 16.159 75.5 15.8522L77.2 4.60221C77.2 4.39766 77.1 4.19312 76.8 4.19312H74.8C74.7 4.19312 74.6 4.39766 74.5 4.49993Z" fill="#2199D6"/>
<path d="M4.50011 18.5114L4.8001 16.3637H4.1001H0.600098L3.00011 0.715919C3.00011 0.715919 3.0001 0.613647 3.1001 0.613647H3.20011H9.10011C11.0001 0.613647 12.4001 1.02274 13.1001 1.84092C13.4001 2.25001 13.6001 2.65911 13.7001 3.0682C13.8001 3.57956 13.8001 4.09092 13.7001 4.80683V5.21592L14.0001 5.42047C14.3001 5.52274 14.5001 5.72729 14.7001 5.93183C15.0001 6.23865 15.2001 6.64775 15.2001 7.15911C15.3001 7.67047 15.3001 8.28411 15.1001 9.00002C14.9001 9.8182 14.7001 10.4318 14.4001 11.0455C14.1001 11.5568 13.7001 11.9659 13.3001 12.375C12.9001 12.6818 12.3001 12.8864 11.8001 13.0909C11.2001 13.1932 10.6001 13.2955 9.90011 13.2955H9.40011C9.10011 13.2955 8.80012 13.3977 8.50012 13.6023C8.30012 13.8068 8.10012 14.1137 8.00012 14.4205V14.625L7.40011 18.4091V18.5114V18.6137C7.40011 18.6137 7.4001 18.6137 7.3001 18.6137H4.50011V18.5114Z" fill="#263577"/>
<path d="M14.3999 4.80676C14.3999 4.90904 14.3999 5.01131 14.2999 5.11358C13.4999 9.2045 10.8999 10.534 7.49991 10.534H5.7999C5.3999 10.534 4.99991 10.8409 4.99991 11.25L4.0999 16.9772L3.8999 18.6136C3.8999 18.9204 4.0999 19.125 4.2999 19.125H7.3999C7.7999 19.125 8.0999 18.8181 8.0999 18.5113V18.3068L8.69991 14.6249V14.4204C8.79991 14.0113 9.09991 13.8068 9.39991 13.8068H9.89991C12.8999 13.8068 15.1999 12.5795 15.7999 8.99995C16.0999 7.46586 15.8999 6.23858 15.1999 5.4204C14.9999 5.21586 14.6999 5.01131 14.3999 4.80676Z" fill="#2199D6"/>
<path d="M13.6 4.49993C13.5 4.49993 13.4 4.39766 13.2 4.39766C13.1 4.39766 12.9 4.29539 12.8 4.29539C12.3 4.19311 11.8 4.19312 11.3 4.19312H6.7C6.6 4.19312 6.49999 4.19311 6.39999 4.29539C6.19999 4.39766 6 4.6022 6 4.80675L5 11.1477V11.3522C5.1 10.9431 5.39999 10.6363 5.79999 10.6363H7.5C10.9 10.6363 13.5 9.20448 14.3 5.21584C14.3 5.11357 14.3 5.0113 14.4 4.90902C14.2 4.80675 14 4.70448 13.8 4.60221C13.7 4.49993 13.6 4.49993 13.6 4.49993Z" fill="#252C5E"/>
<path d="M6 4.80682C6 4.60227 6.2 4.39772 6.4 4.29545C6.5 4.29545 6.6 4.19318 6.7 4.19318H11.3C11.8 4.19318 12.4 4.19318 12.8 4.29545C12.9 4.29545 13.1 4.29545 13.2 4.39773C13.3 4.39773 13.4 4.5 13.6 4.5C13.7 4.5 13.7 4.5 13.8 4.60227C14 4.70455 14.2 4.80682 14.4 4.90909C14.6 3.375 14.4 2.35227 13.6 1.43182C12.7 0.409089 11.1 0 9.1 0H3.2C2.8 0 2.4 0.306815 2.4 0.715906L0 16.4659C0 16.7727 0.2 17.0795 0.5 17.0795H4.09999L5 11.1477L6 4.80682Z" fill="#263577"/>
</svg>
