<svg width="88" height="26" viewBox="0 0 88 26" fill="none" xmlns="http://www.w3.org/2000/svg">
<path fill-rule="evenodd" clip-rule="evenodd" d="M3.38342 9.79072C3.19718 10.2669 3.10406 10.7748 2.97989 11.2828C2.66949 12.8066 2.42116 14.4256 2.07972 15.9494C1.39683 15.9494 0.682893 15.9494 0 15.9494C0.776015 10.8066 2.20388 5.79072 2.82469 0.266915C3.50758 0.266915 4.19048 0.266915 4.84233 0.266915C4.74921 0.774851 4.62505 1.25104 4.56296 1.75898C4.56296 1.79073 4.50089 1.82247 4.50089 1.88596C5.4321 0.647867 6.85997 -0.209274 9.12593 0.0446938C11.3609 0.266916 12.5714 2.07644 12.6646 4.20342C12.8818 8.26691 10.7711 11.9494 6.4254 11.632C4.99753 11.5367 3.91111 10.9971 3.38342 9.79072ZM6.30124 2.07644C4.46985 3.02882 2.70053 7.40977 4.78025 9.28278C6.14603 10.5209 8.28783 9.85421 9.18801 8.71136C10.2123 7.40977 11.1436 3.66374 9.59154 2.33041C9.06385 1.88596 8.22575 1.72723 7.44974 1.82247C6.89101 1.85422 6.61165 1.91771 6.30124 2.07644Z" fill="#030000"/>
<path fill-rule="evenodd" clip-rule="evenodd" d="M22.256 11.4098C21.6042 11.4098 20.9523 11.4098 20.2694 11.4098C20.3626 10.7749 20.4867 10.1717 20.6109 9.56855C20.0211 10.4574 18.9968 11.4733 17.5068 11.632C15.365 11.8543 13.4095 10.7432 13.2232 8.93363C13.1612 8.33046 13.1922 7.34633 13.6888 6.58443C14.9305 4.58443 18.1587 4.45745 21.3559 4.55268C22.3181 0.933636 17.1654 1.47332 15.3961 2.64792C15.4892 1.94951 15.6444 1.28284 15.7375 0.584427C18.9347 -0.431446 23.2493 -0.177477 23.4977 3.34633C23.5908 4.74316 23.1873 6.10824 22.9389 7.44157C22.6906 8.74316 22.4423 10.013 22.256 11.4098ZM15.4892 8.52094C15.5513 9.44157 16.5446 9.94951 17.3516 9.94951C19.5555 9.98126 20.6109 8.013 20.9523 6.07649C18.4691 5.94951 15.334 6.26697 15.4892 8.52094Z" fill="#030000"/>
<path fill-rule="evenodd" clip-rule="evenodd" d="M27.0364 0.298706C27.502 3.25109 28.0607 6.10823 28.4953 9.1241C30.1404 6.23521 31.6614 3.21934 33.2755 0.298706C34.0205 0.298706 34.7655 0.298706 35.5415 0.298706C33.5549 3.98125 31.2268 8.01299 28.9919 11.886C28.309 13.0924 27.6261 14.7114 26.6328 15.5051C25.7637 16.2035 24.0875 16.3622 22.6907 16.0765C22.7217 15.4416 22.939 14.9654 22.97 14.3622C23.2494 14.3305 23.5909 14.5209 23.9323 14.5209C25.4533 14.5209 26.2914 13.0924 26.8501 11.9812C26.1983 8.13998 25.4843 4.33045 24.8325 0.457436C24.7704 0.393944 24.8014 0.362198 24.8325 0.298706C25.5774 0.298706 26.3224 0.298706 27.0364 0.298706Z" fill="#030000"/>
<path fill-rule="evenodd" clip-rule="evenodd" d="M36.4417 17.9177C35.9761 20.6161 35.3863 23.1558 34.9207 25.8542C33.4618 25.8542 32.0029 25.8542 30.5129 25.8542C31.1958 22.5527 31.7856 19.2828 32.4374 16.013C33.0893 12.7749 33.8653 9.53677 34.2378 6.1082C35.4173 6.01296 37.0004 6.01296 38.1799 6.1082C38.1489 6.8701 37.9627 7.50502 37.9006 8.23518C39.0491 7.06058 40.2907 5.50502 42.9292 5.75899C45.4434 6.01296 46.8403 8.17169 47.0265 10.9019C47.3679 15.6003 45.133 20.2034 41.0978 20.5209C38.5835 20.7114 37.4039 19.5368 36.4417 17.9177ZM38.211 10.9019C37.1867 12.3939 36.8452 15.2511 38.1489 16.3622C38.956 17.0606 40.4459 16.7114 41.1288 16.14C41.9979 15.4098 42.6187 14.013 42.5877 12.2669C42.5567 10.6796 41.8738 9.34629 40.2286 9.56852C39.2664 9.6955 38.6766 10.2034 38.211 10.9019Z" fill="#009651"/>
<path fill-rule="evenodd" clip-rule="evenodd" d="M59.1011 20.2352C57.9526 20.2035 56.6489 20.2987 55.5935 20.1717C55.7177 19.5368 55.7177 18.7431 55.8108 18.1082C55.4694 18.4574 55.2211 18.9654 54.7865 19.3781C53.3586 20.7114 50.1614 20.9971 48.5784 19.6638C46.8711 18.2035 47.1505 14.7114 48.5784 13.2193C50.2235 11.4733 53.3276 11.0289 56.5248 11.3781C56.8352 10.0447 55.966 9.21934 54.8796 9.06061C53.2965 8.83839 51.1858 9.5368 50.2546 10.1082C50.4408 8.96537 50.5029 7.72728 50.7202 6.58442C51.8376 6.17172 52.893 5.85426 54.2278 5.79077C57.9216 5.5368 60.4669 6.80664 60.7152 10.0447C60.8394 11.759 60.3427 13.5368 59.9703 15.2193C59.6288 16.8701 59.3805 18.5527 59.1011 20.2352ZM54.6623 13.886C53.3276 13.9177 51.8687 14.3622 51.5583 15.3781C51.3099 16.2669 51.9308 17.0923 52.5826 17.2193C54.6313 17.6638 56.0281 15.6003 56.1833 13.9495C55.7177 13.8543 55.0348 13.886 54.6623 13.886Z" fill="#009651"/>
<path fill-rule="evenodd" clip-rule="evenodd" d="M72.635 6.58438C72.4178 7.72724 72.0142 8.67962 71.7969 9.82248C70.7105 9.44153 69.4068 8.8701 67.6996 9.06058C67.0167 9.15581 66.3338 9.50502 66.3338 10.2034C66.3648 11.0606 67.6375 11.378 68.4135 11.6955C69.4999 12.1717 70.8036 12.8066 71.3313 13.759C72.2315 15.4098 71.3313 17.8225 70.3691 18.8384C69.562 19.6955 68.041 20.3939 66.489 20.5209C64.4714 20.6796 62.3606 20.2987 60.6223 19.8225C60.8706 18.6479 61.15 17.5685 61.4604 16.4891C62.6089 16.9653 63.9126 17.4098 65.6819 17.2511C66.52 17.1558 67.4513 16.8701 67.3271 15.8542C67.234 15.0288 66.0234 14.7431 65.1232 14.3622C63.447 13.6637 62.2054 12.7749 62.2054 10.4574C62.2054 5.69549 68.6618 4.90184 72.635 6.58438Z" fill="#009651"/>
<path fill-rule="evenodd" clip-rule="evenodd" d="M83.6234 6.58435C83.375 7.69546 83.0336 8.74308 82.7232 9.82244C81.6988 9.40974 80.3641 8.87006 78.6569 9.06054C77.974 9.12403 77.2911 9.47323 77.2911 10.2034C77.3221 11.0923 78.8741 11.5685 79.5881 11.8859C81.047 12.5209 82.4438 13.2193 82.63 14.9335C82.8163 16.6161 82.1334 17.9812 81.1711 18.9018C80.271 19.7907 78.9362 20.3939 77.4463 20.5208C75.3976 20.6796 73.411 20.2986 71.5796 19.8224C71.7658 18.6161 72.1383 17.632 72.3556 16.4891C73.1937 16.7431 74.0008 17.1558 74.9941 17.251C76.3909 17.378 78.2844 17.2828 78.2533 16.0447C78.2223 14.7113 75.5218 14.4256 74.4664 13.5685C73.3179 12.6478 72.6039 10.3939 73.5041 8.5526C74.9941 5.69546 80.1158 5.06054 83.6234 6.58435Z" fill="#009651"/>
<path d="M85.2684 8.04473H84.7097L84.7407 7.82251H86.1065L86.0755 8.04473H85.5167L85.2063 9.79076H84.958L85.2684 8.04473Z" fill="#009651"/>
<path d="M87.5654 9.79076L87.6895 8.74314C87.7206 8.55267 87.7516 8.26695 87.7827 8.07648C87.6895 8.26695 87.5964 8.52092 87.4722 8.71139L86.9135 9.79076H86.7273L86.5721 8.74314C86.541 8.52092 86.51 8.2987 86.51 8.07648C86.4789 8.26695 86.4169 8.55267 86.3548 8.74314L86.1065 9.79076H85.8892L86.3858 7.82251H86.6962L86.8514 8.93361C86.8825 9.09234 86.8825 9.28282 86.8825 9.44155C86.9446 9.28282 87.0377 9.12409 87.0998 8.96536L87.6895 7.82251H87.9999L87.7516 9.79076H87.5654Z" fill="#009651"/>
</svg>
