<svg width="42" height="44" viewBox="0 0 42 44" fill="none" xmlns="http://www.w3.org/2000/svg">
<path d="M32.3999 27.1023C33.0999 27.4091 33.3999 28.4318 33.3999 28.9432C33.4999 29.7613 33.2999 30.1704 32.9999 30.1704C32.6999 30.1704 32.2999 29.8636 31.8999 29.1477C31.4998 28.4318 31.2998 27.7159 31.4998 27.3068C31.7999 27.1023 32.0999 27 32.3999 27.1023Z" fill="#F28A1A"/>
<path d="M28.3001 30.2727C28.7001 30.2727 29.2001 30.4773 29.7001 30.8863C30.5001 31.6023 30.8001 32.4204 30.4001 33.0341C30.2001 33.3409 29.7001 33.5454 29.3001 33.5454C28.8001 33.5454 28.3001 33.3409 28.0001 33.0341C27.2001 32.3182 27.0001 31.2954 27.5001 30.6818C27.6001 30.4773 27.9001 30.2727 28.3001 30.2727Z" fill="#F28A1A"/>
<path d="M18.8 38.3523C8.4 38.3523 0 29.7614 0 19.2273C0 8.69318 8.4 0 18.8 0C29.2 0 37.6 8.59091 37.6 19.2273C37.6 22.8068 36.6 26.1818 35 29.0455C34.9 29.1477 34.8 29.1477 34.8 28.9432C34.1 24.2386 31.3 21.6818 27.3 20.8636C26.9 20.7614 26.9 20.5568 27.4 20.5568C28.7 20.4545 30.4 20.4545 31.4 20.6591C31.5 20.1477 31.5 19.6364 31.5 19.2273C31.5 12.2727 25.9 6.54545 19.1 6.54545C12.3 6.54545 6.7 12.2727 6.7 19.2273C6.7 26.1818 12.3 31.9091 19.1 31.9091H19.7C19.5 30.7841 19.4 29.6591 19.5 28.4318C19.5 27.6136 19.7 27.5114 20 28.125C21.7 31.1932 24.2 33.8523 29 34.9773C32.9 35.8977 36.8 36.9205 41.1 42.3409C41.5 42.8523 40.9 43.3636 40.5 42.9545C36.2 39.0682 32.3 37.7386 28.7 37.7386C24.2 37.8409 21.5 38.3523 18.8 38.3523Z" fill="#F28A1A"/>
</svg>
