<svg width="712" height="510" viewBox="0 0 712 510" fill="none" xmlns="http://www.w3.org/2000/svg">
<path d="M490.456 332.747H389.799C388.812 330.28 386.345 328.799 383.385 328.799C379.437 328.799 376.477 331.76 376.477 335.707C376.477 339.655 379.437 342.615 383.385 342.615C386.345 342.615 388.319 341.135 389.799 338.668H484.042L468.746 353.964H337.004C336.017 351.496 333.55 350.016 330.589 350.016C326.642 350.016 323.681 352.977 323.681 356.924C323.681 360.871 326.642 363.832 330.589 363.832C333.55 363.832 335.523 362.352 337.004 359.885H462.331L444.075 378.141H266.445C265.458 375.674 262.991 374.194 260.031 374.194C256.083 374.194 253.123 377.154 253.123 381.101C253.123 385.049 256.083 388.009 260.031 388.009C262.991 388.009 264.965 386.529 266.445 384.062H344.898L326.148 404.786H213.156L192.926 381.595H106.085C105.098 379.128 102.631 377.648 99.6702 377.648C95.7229 377.648 92.7624 380.608 92.7624 384.555C92.7624 388.503 95.7229 391.463 99.6702 391.463C102.631 391.463 104.604 389.983 106.085 387.516H189.965L204.768 405.279H155.92C154.933 402.812 152.466 401.332 149.505 401.332C145.558 401.332 142.597 404.292 142.597 408.239C142.597 412.187 145.558 415.147 149.505 415.147C152.466 415.147 154.439 413.667 155.92 411.2H320.227L300.984 432.417H57.7298C56.743 429.95 54.2758 428.469 51.3153 428.469C47.3679 428.469 44.4075 431.43 44.4075 435.377C44.4075 439.325 47.3679 442.285 51.3153 442.285C54.2758 442.285 56.2495 440.805 57.7298 438.338H303.945L352.793 384.062H446.542L521.541 309.063H711.013V302.648H518.581L490.456 332.747ZM450.489 396.891H366.115L308.879 457.581H213.649C212.663 455.114 210.195 453.634 207.235 453.634C203.288 453.634 200.327 456.594 200.327 460.542C200.327 464.489 203.288 467.449 207.235 467.449C210.195 467.449 212.169 465.969 213.649 463.502H233.879V492.614H191.939L173.189 465.969H133.716C132.729 463.502 130.262 462.022 127.302 462.022C123.354 462.022 120.394 464.982 120.394 468.93C120.394 472.877 123.354 475.838 127.302 475.838C130.262 475.838 132.236 474.357 133.716 471.89H169.735L184.044 492.12H110.032C109.045 489.653 106.578 488.173 103.617 488.173C99.6701 488.173 96.7097 491.133 96.7097 495.081C96.7097 499.028 99.6701 501.989 103.617 501.989C106.578 501.989 108.552 500.508 110.032 498.041H233.879V514.817H174.176C173.189 512.35 170.722 510.87 167.762 510.87C163.814 510.87 160.854 513.831 160.854 517.778C160.854 521.725 163.814 524.686 167.762 524.686C170.722 524.686 172.696 523.206 174.176 520.738H216.61V545.903H154.933C153.946 543.435 151.479 541.955 148.518 541.955C144.571 541.955 141.611 544.916 141.611 548.863C141.611 552.81 144.571 555.771 148.518 555.771C151.479 555.771 153.452 554.291 154.933 551.824H192.926V567.12H147.038L122.367 593.764C119.9 593.271 116.94 593.764 115.459 595.738C112.992 598.698 112.992 603.139 115.953 605.606C118.913 608.073 123.354 608.073 125.821 605.113C127.795 603.139 128.288 600.178 127.302 597.711L149.999 573.534H175.163V613.007H143.091C142.104 610.54 139.637 609.06 136.676 609.06C132.729 609.06 129.769 612.02 129.769 615.968C129.769 619.915 132.729 622.876 136.676 622.876C139.637 622.876 141.611 621.395 143.091 618.928H175.163V622.876L143.091 657.415C140.624 656.921 137.663 657.415 136.183 659.388C133.716 662.349 133.716 666.79 136.676 669.257C139.637 671.724 144.078 671.724 146.545 668.763C148.518 666.79 149.012 663.829 148.025 661.362L181.577 624.849V573.04H192.926V613.501C190.459 614.487 188.979 616.955 188.979 619.915C188.979 623.862 191.939 626.823 195.886 626.823C199.834 626.823 202.794 623.862 202.794 619.915C202.794 616.955 201.314 614.981 198.847 613.501V551.824H216.116V643.599C213.649 644.586 212.169 647.053 212.169 650.013C212.169 653.961 215.13 656.921 219.077 656.921C223.024 656.921 225.985 653.961 225.985 650.013C225.985 647.053 224.504 645.079 222.037 643.599L221.544 520.245H232.893V550.343C230.426 551.33 228.945 553.797 228.945 556.758C228.945 560.705 231.906 563.666 235.853 563.666C239.8 563.666 242.761 560.705 242.761 556.758C242.761 553.797 241.281 551.824 238.814 550.343V462.022H257.07V563.172C254.603 564.159 253.123 566.626 253.123 569.587C253.123 573.534 256.083 576.494 260.031 576.494C263.978 576.494 266.938 573.534 266.938 569.587C266.938 566.626 265.458 564.652 262.991 563.172V462.022H283.221V623.862C280.754 624.849 279.274 627.316 279.274 630.277C279.274 634.224 282.234 637.185 286.182 637.185C290.129 637.185 293.089 634.224 293.089 630.277C293.089 627.316 291.609 625.343 289.142 623.862V505.443L299.997 509.883V556.264C297.53 557.251 296.05 559.718 296.05 562.679C296.05 566.626 299.01 569.587 302.958 569.587C306.905 569.587 309.866 566.626 309.866 562.679C309.866 559.718 308.385 557.745 305.918 556.264V505.443L288.649 499.028V462.022H308.879L337.497 431.923L350.326 448.7L329.602 466.956V548.863C327.135 549.85 325.655 552.317 325.655 555.278C325.655 559.225 328.615 562.185 332.563 562.185C336.51 562.185 339.471 559.225 339.471 555.278C339.471 552.317 337.99 550.343 335.523 548.863V469.916L354.273 453.634L384.865 493.107V585.869C382.398 586.856 380.918 589.323 380.918 592.284C380.918 596.231 383.878 599.192 387.825 599.192C391.773 599.192 394.733 596.231 394.733 592.284C394.733 589.323 393.253 587.35 390.786 585.869V490.64L341.938 427.483L366.609 401.332H415.95V510.377C413.483 511.363 412.003 513.831 412.003 516.791C412.003 520.738 414.963 523.699 418.911 523.699C422.858 523.699 425.818 520.738 425.818 516.791C425.818 513.831 424.338 511.857 421.871 510.377V401.332H438.647V535.541C436.18 536.528 434.7 538.995 434.7 541.955C434.7 545.903 437.66 548.863 441.608 548.863C445.555 548.863 448.516 545.903 448.516 541.955C448.516 538.995 447.035 537.021 444.568 535.541V401.332H450.489L465.785 385.542L464.305 585.376C461.838 586.363 460.358 588.83 460.358 591.79C460.358 595.738 463.318 598.698 467.265 598.698C471.213 598.698 474.173 595.738 474.173 591.79C474.173 588.83 472.693 586.856 470.226 585.376L471.706 379.128L485.522 364.819V450.18C483.055 451.167 481.574 453.634 481.574 456.594C481.574 460.542 484.535 463.502 488.482 463.502C492.43 463.502 495.39 460.542 495.39 456.594C495.39 453.634 493.91 451.66 491.443 450.18V358.404L506.245 343.108L508.219 512.844C505.752 513.831 504.272 516.298 504.272 519.258C504.272 523.205 507.726 526.166 511.179 526.166C514.633 526.166 518.087 522.712 518.087 519.258C518.087 516.298 516.607 514.324 514.14 512.844L512.166 336.694L525.489 322.878H531.41V490.147C528.942 491.133 527.462 493.6 527.462 496.561C527.462 500.508 530.423 503.469 534.37 503.469C538.317 503.469 541.278 500.508 541.278 496.561C541.278 493.6 539.798 491.627 537.33 490.147V322.878H552.626V540.475L505.752 574.027V606.593C503.285 607.58 501.805 610.047 501.805 613.007C501.805 616.955 504.765 619.915 508.712 619.915C512.66 619.915 515.62 616.955 515.62 613.007C515.62 610.047 514.14 608.073 511.673 606.593V591.297L528.942 602.152V629.29C526.475 630.277 524.995 632.744 524.995 635.704C524.995 639.652 527.956 642.612 531.903 642.612C535.85 642.612 538.811 639.652 538.811 635.704C538.811 632.744 537.33 630.77 534.863 629.29V598.698L511.179 583.896V578.962L558.054 545.409V324.359H707.066V317.944H522.035L450.489 396.891ZM580.258 402.318C577.791 403.305 576.311 405.772 576.311 408.733C576.311 412.68 579.271 415.641 583.218 415.641C587.166 415.641 590.126 412.68 590.126 408.733C590.126 405.772 588.646 403.799 586.179 402.318V341.135H711.013V334.72H579.764V402.318H580.258ZM486.015 311.036H312.333L285.195 261.695L108.552 263.175L93.7491 240.478H26.6445C25.6576 238.011 23.1906 236.531 20.2301 236.531C16.2828 236.531 13.3223 239.491 13.3223 243.438C13.3223 247.386 16.2828 250.346 20.2301 250.346C23.1906 250.346 25.1642 248.866 26.6445 246.399H90.2953L101.15 262.682H74.9994C74.0125 260.214 71.5454 258.734 68.5849 258.734C64.6375 258.734 61.6771 262.188 61.6771 265.642C61.6771 269.589 65.1309 272.55 68.5849 272.55C71.5454 272.55 73.5191 271.07 74.9994 268.603L281.247 266.629L287.662 278.471H135.196L118.913 298.701H13.3223C12.3355 296.234 9.8683 294.754 6.9078 294.754C2.96047 294.754 0 297.714 0 301.661C0 305.609 2.96047 308.569 6.9078 308.569C9.8683 308.569 11.8421 307.089 13.3223 304.622H121.874L138.157 284.392H291.116L304.931 309.556H258.057L243.254 331.266H225.491L207.235 307.582L162.334 309.063C160.854 306.596 158.88 305.115 155.92 305.115C151.972 305.115 149.012 308.569 149.012 312.517C149.012 316.464 152.466 319.424 156.413 319.424C159.374 319.424 161.347 317.451 162.334 315.477L203.781 313.997L217.103 331.266H176.643C175.656 328.799 173.189 327.319 170.229 327.319C166.281 327.319 163.321 330.28 163.321 334.227C163.321 338.174 166.281 341.135 170.229 341.135C173.189 341.135 175.163 339.655 176.643 337.187H246.215L261.017 315.477H278.78L254.603 348.043H51.8087C50.8219 345.576 48.3549 344.095 45.3944 344.095C41.447 344.095 38.4866 347.056 38.4866 351.003C38.4866 354.95 41.447 357.911 45.3944 357.911C48.3549 357.911 50.3285 356.431 51.8087 353.964H257.563L286.182 315.477H487.496L521.048 287.846H711.013V282.912H519.074L486.015 311.036ZM331.576 -53.5984V19.4273L380.918 69.7557H473.68L543.252 149.196H711.506V142.781H605.422V101.828L657.231 77.157V42.6178C659.698 41.631 661.178 39.164 661.178 36.2035C661.178 32.2561 658.218 29.2957 654.27 29.2957C650.323 29.2957 647.362 32.2561 647.362 36.2035C647.362 39.164 648.843 41.1376 651.31 42.6178V73.2097L605.422 94.92V-1.29622C607.889 -2.28306 609.369 -4.75009 609.369 -7.71059C609.369 -11.6579 606.409 -14.6184 602.462 -14.6184C598.514 -14.6184 595.554 -11.6579 595.554 -7.71059C595.554 -4.75009 597.034 -2.77647 599.501 -1.29622V142.781H584.698V64.3282C587.166 63.3414 588.646 60.8742 588.646 57.9137C588.646 53.9664 585.685 51.0059 581.738 51.0059C577.791 51.0059 574.83 53.9664 574.83 57.9137C574.83 60.8742 576.311 62.848 578.778 64.3282V142.781H559.041V-44.7168H512.66L504.272 -57.0522V-92.0848C506.739 -93.0717 508.219 -95.5387 508.219 -98.4992C508.219 -102.447 505.258 -105.407 501.311 -105.407C497.364 -105.407 494.403 -102.447 494.403 -98.4992C494.403 -95.5387 495.884 -93.5651 498.351 -92.0848V-55.0786L505.258 -44.2234H469.239V-80.2429C471.706 -81.2297 473.186 -83.6967 473.186 -86.6572C473.186 -90.6045 470.226 -93.565 466.279 -93.565C462.331 -93.565 459.371 -90.6045 459.371 -86.6572C459.371 -83.6967 460.851 -81.7231 463.318 -80.2429V63.8348H444.568V-13.1382C447.035 -14.125 448.516 -16.5921 448.516 -19.5526C448.516 -23.4999 445.555 -26.4605 441.608 -26.4605C437.66 -26.4605 434.7 -23.4999 434.7 -19.5526C434.7 -16.5921 436.18 -14.6184 438.647 -13.1382V63.8348H421.378V-13.1382C423.845 -14.125 425.325 -16.5921 425.325 -19.5526C425.325 -23.4999 422.365 -26.4605 418.417 -26.4605C414.47 -26.4605 411.509 -23.4999 411.509 -19.5526C411.509 -16.5921 412.99 -14.6184 415.457 -13.1382V63.8348H384.865L368.089 46.5652L393.253 14.9866V-86.1638C395.72 -87.1506 397.2 -89.6178 397.2 -92.5783C397.2 -96.5256 394.24 -99.4861 390.292 -99.4861C386.345 -99.4861 383.385 -96.5256 383.385 -92.5783C383.385 -89.6178 384.865 -87.644 387.332 -86.1638V12.5195L364.141 42.1245L339.964 17.4537V-53.105C342.431 -54.0918 343.911 -56.5588 343.911 -59.5193C343.911 -63.4666 340.951 -66.4271 337.004 -66.4271C333.056 -66.4271 330.096 -63.4666 330.096 -59.5193C327.628 -57.0522 329.109 -54.5852 331.576 -53.5984ZM468.746 -38.3025H552.133V143.275H545.719L534.37 130.446V61.8612C536.837 60.8743 538.317 58.4072 538.317 55.4467C538.317 51.4993 535.357 48.5389 531.41 48.5389C527.462 48.5389 524.502 51.4993 524.502 55.4467C524.502 58.4072 525.982 60.3809 528.449 61.8612V123.538L515.62 109.229V29.7891C518.087 28.8023 519.568 26.3351 519.568 23.3746C519.568 19.4273 516.607 16.4668 512.66 16.4668C508.712 16.4668 505.752 19.4273 505.752 23.3746C505.752 26.3351 507.232 28.3089 509.699 29.7891V102.321L493.91 84.0649V29.7891C496.377 28.8023 497.857 26.3351 497.857 23.3746C497.857 19.4273 494.897 16.4668 490.949 16.4668C487.002 16.4668 484.042 19.4273 484.042 23.3746C484.042 26.3351 485.522 28.3089 487.989 29.7891V77.157L477.134 64.3282H469.239V-38.3025H468.746ZM462.825 137.847H361.181C360.194 135.38 357.727 133.9 354.766 133.9C350.819 133.9 347.859 136.86 347.859 140.808C347.859 144.755 350.819 147.716 354.766 147.716C357.727 147.716 359.701 146.235 361.181 143.768H459.864L519.074 209.886H711.506V203.965H522.035L462.825 137.847ZM358.714 261.201C354.766 261.201 351.806 264.162 351.806 268.109C351.806 272.056 354.766 275.017 358.714 275.017C361.674 275.017 363.648 273.537 365.128 271.07H486.015L468.252 289.326H373.516C372.529 286.859 370.062 285.379 367.102 285.379C363.154 285.379 360.194 288.339 360.194 292.287C360.194 296.234 363.154 299.194 367.102 299.194C370.062 299.194 372.036 297.714 373.516 295.247H470.719L494.403 270.576H711.506V264.162H365.128C364.141 262.682 361.674 261.201 358.714 261.201ZM537.33 162.518L460.358 80.1175H375.983L319.734 28.3088H290.129V-119.223C292.596 -120.21 294.076 -122.677 294.076 -125.637C294.076 -129.584 291.116 -132.545 287.168 -132.545C283.221 -132.545 280.261 -129.584 280.261 -125.637C280.261 -122.677 281.741 -120.703 284.208 -119.223V28.3088H266.938V-57.5457C269.405 -58.5325 270.886 -60.9995 270.886 -63.96C270.886 -67.9074 267.925 -70.868 263.978 -70.868C260.03 -70.868 257.07 -67.9074 257.07 -63.96C257.07 -60.9995 258.55 -59.0259 261.017 -57.5457V28.3088H243.254V-100.473C245.721 -101.46 247.202 -103.927 247.202 -106.887C247.202 -110.835 244.241 -113.795 240.294 -113.795C236.347 -113.795 233.386 -110.835 233.386 -106.887C233.386 -103.927 234.866 -101.953 237.333 -100.473V28.3088H221.051V-141.426C223.518 -142.413 224.998 -144.88 224.998 -147.841C224.998 -151.788 222.037 -154.749 218.09 -154.749C214.143 -154.749 211.182 -151.788 211.182 -147.841C211.182 -144.88 212.663 -142.907 215.13 -141.426V-69.8811H207.728V-112.315C210.195 -113.302 211.676 -115.769 211.676 -118.729C211.676 -122.677 208.715 -125.637 204.768 -125.637C200.82 -125.637 197.86 -122.677 197.86 -118.729C197.86 -115.769 199.34 -113.795 201.807 -112.315V-69.8811H187.992L187.005 -117.743L167.762 -143.894C168.748 -146.361 168.748 -148.828 167.268 -151.295C164.801 -154.255 160.36 -155.242 157.4 -152.775C154.439 -150.308 153.453 -145.867 155.92 -142.907C157.4 -140.933 160.36 -139.946 162.827 -140.44L181.084 -115.769L182.071 -70.3745H149.505L102.137 -149.815C103.618 -151.788 103.618 -154.749 102.137 -157.216C100.164 -160.67 95.7229 -161.657 92.2689 -159.683C88.815 -157.709 87.8282 -153.269 89.8019 -149.815C91.2821 -147.348 93.7491 -146.361 96.2162 -146.361L145.558 -63.96H213.649V-49.651H126.315C125.328 -52.1181 122.861 -53.5984 119.9 -53.5984C115.953 -53.5984 112.992 -50.6378 112.992 -46.6905C112.992 -42.7431 115.953 -39.7827 119.9 -39.7827C122.861 -39.7827 124.834 -41.263 126.315 -43.7301H185.031L170.229 -30.4078H135.196C134.209 -32.8749 131.742 -34.355 128.782 -34.355C124.834 -34.355 121.874 -31.3946 121.874 -27.4472C121.874 -23.4999 124.834 -20.5394 128.782 -20.5394C131.742 -20.5394 133.716 -22.0196 135.196 -24.4867H172.696L194.406 -44.2234H213.649V-6.2304H97.2031C96.2163 -8.69748 93.7491 -10.1777 90.7886 -10.1777C86.8413 -10.1777 83.8808 -7.2172 83.8808 -3.26987C83.8808 0.677462 86.8413 3.63794 90.7886 3.63794C93.7491 3.63794 95.7229 2.15775 97.2031 -0.309331H213.649V7.09191H181.084L165.788 27.322H121.874C120.887 24.8549 118.42 23.3746 115.459 23.3746C111.512 23.3746 108.552 26.3351 108.552 30.2824C108.552 34.2297 111.512 37.1903 115.459 37.1903C118.42 37.1903 120.394 35.71 121.874 33.2429H168.748L184.044 13.0128H213.156V32.2562H316.773L373.023 84.0649H457.397L534.37 166.465H712V160.051H537.33V162.518ZM455.423 100.841H370.062L315.787 47.552L43.914 52.4861C42.9272 50.0191 40.4602 48.5389 37.4997 48.5389C33.5523 48.5389 30.5919 51.9928 30.5919 55.9401C30.5919 59.8874 34.0458 62.8479 37.9931 62.8479C40.9536 62.8479 42.9272 61.3677 43.914 58.9006L313.319 53.9665L327.135 67.2886L144.571 68.769C143.584 66.3019 141.117 64.8215 138.157 64.8215C134.209 64.8215 131.249 68.2756 131.249 71.7295C131.249 75.6768 134.703 78.6373 138.157 78.6373C141.117 78.6373 143.091 77.157 144.571 74.6899L333.55 73.2097L367.595 106.762H452.956L461.838 116.137H243.254L199.834 84.5582H113.486C112.499 82.0911 110.032 80.6109 107.071 80.6109C103.124 80.6109 100.164 83.5714 100.164 87.5187C100.164 91.4661 103.124 94.4265 107.071 94.4265C110.032 94.4265 112.006 92.9463 113.486 90.4793H197.86L241.281 122.058H467.759L532.89 190.643H711.506V184.228H535.357L455.423 100.841ZM475.16 178.801H431.739L412.99 160.051H308.385C307.398 157.584 304.931 156.104 301.971 156.104C298.024 156.104 295.063 159.064 295.063 163.012C295.063 166.959 298.024 169.919 301.971 169.919C304.931 169.919 306.905 168.439 308.385 165.972H410.523L422.858 178.801H283.714L254.109 143.275H198.847L172.202 114.163H90.7886C89.8018 111.696 87.3347 110.216 84.3742 110.216C80.4269 110.216 77.4664 113.176 77.4664 117.124C77.4664 121.071 80.4269 124.032 84.3742 124.032C87.3347 124.032 89.3083 122.551 90.7886 120.084H169.242L189.965 142.781H51.3153C50.3284 140.314 47.8614 138.834 44.9009 138.834C40.9536 138.834 37.9931 141.795 37.9931 145.742C37.9931 149.689 40.9536 152.65 44.9009 152.65C47.8614 152.65 49.835 151.169 51.3153 148.702H191.446L177.136 170.906H73.519C72.5322 168.439 70.0652 166.959 67.1047 166.959C63.1573 166.959 60.1969 169.919 60.1969 173.867C60.1969 177.814 63.1573 180.774 67.1047 180.774C70.0652 180.774 72.0388 179.294 73.519 176.827H180.59L198.847 148.209H250.656L274.833 177.321H194.899C193.913 174.853 191.446 173.373 188.485 173.373C184.538 173.373 181.577 176.334 181.577 180.281C181.577 184.228 184.538 187.189 188.485 187.189C191.446 187.189 193.419 185.709 194.899 183.241H297.53L284.208 200.018H58.2232C57.2364 197.551 54.7692 196.07 51.8087 196.07C47.8614 196.07 44.9009 199.031 44.9009 202.978C44.9009 206.925 47.8614 209.886 51.8087 209.886C54.7692 209.886 56.743 208.406 58.2232 205.939H279.274L265.951 222.715H139.637C138.65 220.248 136.183 218.768 133.222 218.768C129.275 218.768 126.315 221.728 126.315 225.675C126.315 229.623 129.275 232.583 133.222 232.583C136.183 232.583 138.157 231.103 139.637 228.636H268.912L287.662 204.952L305.425 182.748H471.213L518.087 229.623H710.52V223.208H521.048L475.16 178.801ZM470.719 195.084H373.516C372.529 192.616 370.062 191.136 367.102 191.136C363.154 191.136 360.194 194.097 360.194 198.044C360.194 201.991 363.154 204.952 367.102 204.952C370.062 204.952 372.036 203.472 373.516 201.004H468.252L487.989 220.741H358.22C357.234 218.274 354.767 216.794 351.806 216.794C347.859 216.794 344.898 219.754 344.898 223.702C344.898 227.649 347.859 230.609 351.806 230.609C354.767 230.609 356.74 229.129 358.22 226.662H494.403L513.153 245.412H345.392C344.405 242.945 341.938 241.465 338.977 241.465C335.03 241.465 332.069 244.425 332.069 248.372C332.069 252.32 335.03 255.28 338.977 255.28C341.938 255.28 343.911 253.8 345.392 251.333H519.568H521.048H711.506V244.919H522.035L470.719 195.084Z" fill="url(#paint0_linear_389_3122)"/>
<defs>
<linearGradient id="paint0_linear_389_3122" x1="-0.190952" y1="256.177" x2="712.792" y2="256.177" gradientUnits="userSpaceOnUse">
<stop stop-color="#6A3EFF"/>
<stop offset="0.1271" stop-color="#6633F2"/>
<stop offset="1" stop-color="#8B32F1"/>
</linearGradient>
</defs>
</svg>
