<svg width="20" height="20" viewBox="0 0 20 20" fill="none" xmlns="http://www.w3.org/2000/svg">
<path d="M12.4489 13.5581L12.4176 13.5268L12.3827 13.554C11.2263 14.4583 9.80066 14.9498 8.33267 14.9501C4.68446 14.9501 1.71602 11.9816 1.71602 8.33342C1.71602 4.6852 4.68446 1.71675 8.33268 1.71675C11.9809 1.71675 14.9494 4.6852 14.9494 8.3334C14.949 9.80177 14.4573 11.2278 13.5525 12.3843L13.5252 12.4191L13.5565 12.4504L17.1845 16.0784L16.0768 17.186L12.4489 13.5581ZM13.3827 8.33342C13.3827 5.5483 11.1178 3.28341 8.33268 3.28341C5.54757 3.28341 3.28268 5.5483 3.28268 8.33342C3.28268 11.1185 5.54757 13.3834 8.33268 13.3834C11.1178 13.3834 13.3827 11.1185 13.3827 8.33342Z" fill="white" stroke="white" stroke-width="0.1"/>
</svg>
