<svg width="70" height="70" viewBox="0 0 70 70" fill="none" xmlns="http://www.w3.org/2000/svg">
<path fill-rule="evenodd" clip-rule="evenodd" d="M35.0002 18.7791C38.6425 18.7791 42.0839 19.9588 44.9518 22.1906C45.3988 22.5388 46.0429 22.4582 46.3906 22.0112C46.7388 21.5642 46.6581 20.9201 46.2111 20.5724C42.9795 18.0575 39.1028 16.7283 35.0002 16.7283C24.9252 16.7283 16.729 24.925 16.729 35C16.729 43.7804 22.9545 51.1328 31.2228 52.8781C31.2458 52.8834 31.2693 52.8888 31.2928 52.8931C33.727 53.3967 36.2632 53.3988 38.7076 52.8931C38.7311 52.8888 38.7546 52.884 38.7776 52.8781C47.0459 51.1328 53.2719 43.7804 53.2719 35C53.2719 31.0875 52.0516 27.3555 49.7434 24.2072C49.4085 23.7506 48.7671 23.6518 48.3105 23.9866C47.8533 24.3215 47.7545 24.9634 48.0894 25.4201C50.138 28.2137 51.2211 31.5265 51.2211 35C51.2211 42.3641 46.2875 48.5971 39.5525 50.5694V40.6263C40.5223 40.1456 41.4206 39.5106 42.2142 38.7282C46.9503 34.0574 46.0963 26.1234 40.3205 22.6216C39.7666 22.2857 39.0724 22.2745 38.5084 22.5922C37.945 22.9095 37.5952 23.5081 37.5952 24.1543V30.0701L34.9345 32.6133L32.4052 30.084V24.1543C32.4052 23.5081 32.0554 22.9095 31.492 22.5922C30.928 22.2745 30.2332 22.2862 29.6788 22.6221C23.9991 26.0663 22.955 34.0195 27.8508 38.7726C28.6278 39.5272 29.5047 40.143 30.4479 40.6135V48.8353V50.5694C23.7129 48.5971 18.7793 42.3641 18.7793 35C18.7793 26.0556 26.0558 18.7791 35.0002 18.7791ZM32.4987 41.3761V48.8353V51.0276C32.9841 51.1029 33.4765 51.1558 33.9748 51.1873V45.4168C33.9748 44.8507 34.4341 44.3914 35.0002 44.3914C35.5663 44.3914 36.0256 44.8507 36.0256 45.4168V51.1873C36.5238 51.1563 37.0163 51.1029 37.5017 51.0276V41.382C35.8782 41.7857 34.1516 41.7932 32.4987 41.3761ZM31.7563 38.9702C31.8295 38.9915 31.8994 39.0193 31.9651 39.0551C33.9951 39.862 36.1991 39.8017 38.0737 39.046C38.1047 39.0305 38.1367 39.0172 38.1693 39.0049C41.0842 37.7862 43.2236 34.8942 43.2236 31.4122C43.2236 28.6666 41.8949 26.1624 39.6454 24.6254V30.1977C39.6454 30.6736 39.4483 31.1355 39.1044 31.4645L36.1404 34.2972C35.4579 34.9503 34.3588 34.938 33.6907 34.2694L30.8676 31.4469C30.5365 31.1158 30.3544 30.6757 30.3544 30.2074V24.6259C28.0217 26.2254 26.663 28.9219 26.7842 31.7716C26.9215 35.0139 28.9349 37.7584 31.7563 38.9702Z" fill="url(#paint0_linear_187_19532)"/>
<path fill-rule="evenodd" clip-rule="evenodd" d="M67.3927 27.2722L60.6695 26.4604C60.482 26.438 60.325 26.3082 60.2593 26.1218C59.9362 25.2027 59.5565 24.2895 59.1314 23.4061C59.0497 23.2363 59.0678 23.0419 59.1795 22.8999L63.3697 17.5593C64.2936 16.3811 64.1921 14.6946 63.1336 13.6356L56.3644 6.86638C55.3054 5.80788 53.6189 5.70641 52.4407 6.63033L47.1001 10.8211C46.9576 10.9322 46.7637 10.9509 46.5939 10.8686C45.7111 10.4435 44.7973 10.0638 43.8787 9.74068C43.6918 9.67499 43.562 9.51797 43.5396 9.33052L42.7278 2.60727C42.5484 1.12099 41.2837 0 39.7868 0H30.2132C28.7163 0 27.4516 1.12099 27.2722 2.60727L26.4604 9.32999C26.438 9.51797 26.3082 9.67499 26.1218 9.74068C25.2027 10.0638 24.2889 10.4435 23.4067 10.8686C23.2363 10.9503 23.0424 10.9322 22.9004 10.8205L17.5593 6.63033C16.3811 5.70587 14.6946 5.80788 13.6361 6.86638L11.9431 8.55934L6.86691 13.6361C5.80788 14.6946 5.70641 16.3811 6.63086 17.5593L10.8211 22.9004C10.9327 23.0424 10.9509 23.2363 10.8686 23.4067C10.4435 24.2895 10.0638 25.2032 9.74068 26.1213C9.67499 26.3082 9.51797 26.438 9.33052 26.4604L2.60727 27.2722C1.12099 27.4516 0 28.7163 0 30.2132V39.7868C0 41.2837 1.12099 42.5484 2.60727 42.7278L9.33052 43.5396C9.51797 43.562 9.67499 43.6918 9.74068 43.8782C10.0638 44.7968 10.4435 45.7105 10.8686 46.5933C10.9509 46.7637 10.9322 46.9576 10.8211 47.0996L6.63086 52.4407C5.70641 53.6189 5.80788 55.3054 6.86691 56.3639L13.6361 63.1331C14.6946 64.1921 16.3811 64.2936 17.5593 63.3691L22.9004 59.1789C23.0424 59.0673 23.2363 59.0491 23.4067 59.1314C24.2889 59.5565 25.2027 59.9357 26.1218 60.2593C26.3082 60.3245 26.438 60.482 26.4604 60.6695L27.2722 67.3922C27.4516 68.879 28.7163 70 30.2132 70H39.7868C41.2837 70 42.5484 68.879 42.7278 67.3927L43.5396 60.6695C43.562 60.482 43.6918 60.325 43.8782 60.2593C44.7973 59.9362 45.7111 59.5565 46.5933 59.1314C46.7637 59.0491 46.9576 59.0678 47.0996 59.1795L52.4407 63.3697C53.6183 64.2936 55.3054 64.1921 56.3639 63.1336L63.1331 56.3644C64.1921 55.3054 64.2936 53.6189 63.3691 52.4407L59.1789 47.1001C59.0673 46.9581 59.0491 46.7637 59.1314 46.5939C59.5565 45.7105 59.9357 44.7973 60.2593 43.8787C60.3245 43.6923 60.482 43.5625 60.6695 43.5396L67.3922 42.7278C68.879 42.5484 70 41.2837 70 39.7868V30.2132C70 28.7163 68.879 27.4516 67.3927 27.2722ZM15.0861 8.31688L13.3931 10.0093L8.31688 15.0861C7.9911 15.4118 7.95959 15.9309 8.24425 16.2936L12.4345 21.6341C13.0321 22.3962 13.14 23.4163 12.7164 24.2964C12.3239 25.1114 11.9736 25.9541 11.675 26.8022C11.3487 27.7304 10.5439 28.3798 9.57619 28.4962L2.85294 29.308C2.39578 29.3636 2.05078 29.7523 2.05078 30.2132V39.7868C2.05078 40.2477 2.39578 40.6364 2.85347 40.692L9.57619 41.5032C10.5439 41.6202 11.3487 42.2696 11.675 43.1978C11.9736 44.0453 12.3239 44.8886 12.7164 45.7036C13.14 46.5837 13.0321 47.6038 12.4345 48.3659L8.24425 53.7064C7.95959 54.0691 7.9911 54.5882 8.31688 54.9139L15.0861 61.6831C15.4118 62.0089 15.9309 62.0399 16.2936 61.7558L21.6341 57.5661C22.3962 56.9679 23.4163 56.86 24.2964 57.2841C25.1114 57.6766 25.9541 58.027 26.8022 58.325C27.7304 58.6518 28.3798 59.4561 28.4968 60.4243L29.308 67.1471C29.3636 67.6048 29.7523 67.9498 30.2132 67.9498H39.7868C40.2477 67.9498 40.6364 67.6048 40.692 67.1471L41.5032 60.4243C41.6202 59.4561 42.2696 58.6518 43.1978 58.325C44.0459 58.027 44.8886 57.6766 45.7036 57.2841C46.5837 56.86 47.6038 56.9679 48.3659 57.5661L53.7064 61.7563C54.0691 62.0404 54.5882 62.0094 54.9139 61.6837L61.6831 54.9145C62.0089 54.5887 62.0404 54.0696 61.7558 53.707L57.5655 48.3659C56.9679 47.6038 56.86 46.5837 57.2836 45.7036C57.6761 44.8886 58.0264 44.0459 58.325 43.1978C58.6513 42.2696 59.4561 41.6202 60.4238 41.5038L67.1471 40.692C67.6042 40.6364 67.9492 40.2477 67.9492 39.7868V30.2132C67.9492 29.7523 67.6042 29.3636 67.1465 29.308L60.4238 28.4968C59.4561 28.3798 58.6513 27.7304 58.325 26.8022C58.0264 25.9547 57.6761 25.1114 57.2836 24.2964C56.86 23.4163 56.9679 22.3962 57.5655 21.6341L61.7558 16.2936C62.0404 15.9309 62.0089 15.4118 61.6831 15.0861L54.9139 8.31688C54.5882 7.9911 54.0691 7.95959 53.7064 8.24425L48.3659 12.4345C47.6038 13.0321 46.5837 13.14 45.7036 12.7164C44.8886 12.3239 44.0459 11.9736 43.1978 11.675C42.2696 11.3487 41.6202 10.5444 41.5032 9.57619L40.692 2.85294C40.6364 2.39578 40.2471 2.05078 39.7868 2.05078H30.2132C29.7523 2.05078 29.3636 2.39578 29.308 2.85294L28.4968 9.57619C28.3798 10.5444 27.7304 11.3487 26.8022 11.6756C25.9541 11.9736 25.1114 12.3239 24.2964 12.7164C23.4163 13.1405 22.3962 13.0321 21.6341 12.4345L16.2936 8.24425C15.9304 7.95959 15.4118 7.9911 15.0861 8.31688Z" fill="url(#paint1_linear_187_19532)"/>
<defs>
<linearGradient id="paint0_linear_187_19532" x1="16.729" y1="21.4789" x2="54.4511" y2="23.5673" gradientUnits="userSpaceOnUse">
<stop stop-color="#1FA2FF"/>
<stop offset="0.515625" stop-color="#12D8FA"/>
<stop offset="1" stop-color="#A6FFCB"/>
</linearGradient>
<linearGradient id="paint1_linear_187_19532" x1="-1.00689e-06" y1="9.10001" x2="72.2588" y2="13.1005" gradientUnits="userSpaceOnUse">
<stop stop-color="#1FA2FF"/>
<stop offset="0.515625" stop-color="#12D8FA"/>
<stop offset="1" stop-color="#A6FFCB"/>
</linearGradient>
</defs>
</svg>
