<svg width="73" height="43" viewBox="0 0 73 43" fill="none" xmlns="http://www.w3.org/2000/svg">
<path d="M32.5615 25.3691L34.5014 12.6846H37.5497L35.6098 25.3691H32.5615Z" fill="#074784"/>
<path d="M23.5552 12.6846H28.4048C31.4531 12.6846 32.2845 14.5584 31.8688 16.7206C31.5917 18.5944 30.3446 19.7476 28.6819 20.18L31.7302 25.3691H27.712L25.3565 20.3241L24.6637 25.3691H21.4768L23.5552 12.6846ZM26.3264 15.135L25.7722 18.3061H26.7421C27.5734 18.3061 28.4048 17.5854 28.5433 16.7206C28.6819 15.8557 28.1277 15.135 27.1578 15.135H26.3264Z" fill="#074784"/>
<path d="M46.833 25.3691L48.7728 12.6846H51.9597L50.0199 25.3691H46.833Z" fill="#074784"/>
<path d="M57.0865 15.4233L56.6708 17.5854H60.2734L59.8577 20.3241H56.2551L55.978 22.6304H59.7191L59.3035 25.3691H52.3755L54.3153 12.6846H61.2433L60.8276 15.4233H57.0865Z" fill="#074784"/>
<path d="M17.4586 15.4233L17.1815 17.5854H20.784L20.3683 20.3241H16.7658L16.3501 22.6304H20.0912L19.6755 25.3691H12.7476L14.6874 12.6846H21.6154L21.1997 15.4233H17.4586Z" fill="#074784"/>
<path d="M42.6764 15.4233L42.3992 17.5854H45.8632L45.4476 20.3241H41.9836L41.1522 25.3691H37.9653L39.9052 12.6846H46.9717L46.556 15.4233H42.6764Z" fill="#074784"/>
<path d="M67.2014 12.6846H63.0446L61.1047 25.3691H65.2615C69.1412 25.3691 72.3281 22.6304 72.8823 19.0269C73.1594 16.5764 72.051 12.6846 67.2014 12.6846ZM69.5569 18.8827C69.1412 21.189 67.617 22.6304 65.5386 22.6304C65.2615 22.6304 64.9844 22.6304 64.7073 22.6304L65.8158 15.4233C66.0929 15.4233 66.2314 15.4233 66.5086 15.4233C68.8641 15.4233 69.834 17.153 69.5569 18.8827Z" fill="#074784"/>
<path d="M0 10.9549H5.8195L6.5123 20.18C10.392 13.2611 14.2716 6.63057 18.2899 0H20.2297C16.0729 8.36028 11.9161 16.8647 7.8979 25.3691H3.60255L2.49407 15.135C2.21695 12.6846 1.80128 11.5314 0 11.3873V10.9549Z" fill="#074784"/>
<path d="M7.89774 13.6935L12.4702 5.62154V5.33325H2.2168V5.62154L7.20495 7.92782L7.62063 13.6935H7.89774Z" fill="#F09C11"/>
<path d="M26.0492 32.4322C25.2178 32.4322 24.525 32.8647 23.9708 33.4412L24.6636 28.3962H22.5852L21.061 39.4952H23.1394L23.278 38.6304C23.6937 39.2069 24.2479 39.6394 25.0793 39.6394C26.742 39.6394 28.2661 38.0538 28.5433 36.0358C28.8204 34.0178 27.7119 32.4322 26.0492 32.4322ZM26.3263 36.0358C26.1877 36.9007 25.4949 37.6214 24.8021 37.6214C24.1093 37.6214 23.5551 36.9007 23.6937 36.0358C23.8322 35.1709 24.525 34.4502 25.2178 34.4502C25.9106 34.4502 26.4649 35.1709 26.3263 36.0358Z" fill="#074784"/>
<path d="M34.3626 32.5762H36.7181L30.483 42.9545H28.1274L30.7601 38.6302L28.6817 32.5762H31.0372L32.1457 36.1797L34.3626 32.5762Z" fill="#074784"/>
<path d="M50.7127 39.4952H47.803L51.1284 28.3962H54.0381L50.7127 39.4952Z" fill="#074784"/>
<path d="M46.5561 28.3961L42.6764 35.6033L42.3993 28.3961H37.4111V28.8285C39.0738 28.8285 39.351 29.1168 39.6281 30.4141L40.598 39.4951H43.6463L49.743 28.3961H46.5561Z" fill="#074784"/>
<path d="M65.5386 37.9097L64.8458 39.4952H61.6589L67.4784 28.3962H71.3581L72.328 39.4952H70.1111H69.1412L69.0026 37.9097H65.5386ZM66.5085 35.7475H69.0026L68.7255 30.5584L66.5085 35.7475Z" fill="#074784"/>
<path d="M57.0865 39.7834C55.0081 39.7834 53.6225 39.0627 52.6526 38.4861L54.0382 36.3239C54.8695 36.9005 55.5623 37.4771 57.2251 37.4771C57.7793 37.4771 58.195 37.3329 58.4721 36.9005C58.8878 36.1798 58.3335 35.7474 57.2251 35.1708L56.6708 34.5942C55.0081 33.4411 54.1767 32.2879 55.0081 30.2699C55.5623 28.9726 56.8094 28.1078 59.0263 28.1078C60.5505 28.1078 61.9361 28.8285 62.7675 29.4051L61.1047 31.2789C60.2734 30.5582 59.5806 30.2699 58.8878 30.2699C58.3335 30.2699 57.7793 30.5582 57.6407 30.8465C57.3636 31.4231 57.7793 31.8555 58.6107 32.4321L59.3035 32.8645C61.3819 34.1618 61.7975 35.6032 61.3819 36.9005C60.6891 39.3509 58.8878 39.7834 57.0865 39.7834Z" fill="#074784"/>
</svg>
