<svg width="18" height="12" viewBox="0 0 18 12" fill="none" xmlns="http://www.w3.org/2000/svg">
<path d="M14.9363 6.79288C14.6453 6.41488 14.7285 6.24671 14.9363 5.90883C14.94 5.90497 17.3423 2.49063 17.5898 1.33271L17.5913 1.33194C17.7143 0.909968 17.5913 0.599854 16.9965 0.599854H15.0285C14.5275 0.599854 14.2965 0.865996 14.1728 1.16377C14.1728 1.16377 13.1708 3.6308 11.7533 5.22997C11.2958 5.69205 11.0843 5.84017 10.8345 5.84017C10.7115 5.84017 10.5203 5.69205 10.5203 5.27008V1.33194C10.5203 0.825882 10.38 0.599854 9.96525 0.599854H6.87075C6.5565 0.599854 6.36975 0.835911 6.36975 1.05577C6.36975 1.5356 7.0785 1.64591 7.152 2.99591V5.92503C7.152 6.56685 7.03875 6.68488 6.7875 6.68488C6.1185 6.68488 4.49475 4.20783 3.5325 1.37283C3.33825 0.822796 3.1485 0.600625 2.64375 0.600625H0.675C0.11325 0.600625 0 0.866768 0 1.16454C0 1.69065 0.669 4.30657 3.111 7.76257C4.7385 10.1216 7.0305 11.3999 9.1155 11.3999C10.3688 11.3999 10.5218 11.116 10.5218 10.6277C10.5218 8.37354 10.4085 8.16063 11.0363 8.16063C11.3273 8.16063 11.8283 8.30874 12.9983 9.4466C14.3355 10.7958 14.5553 11.3999 15.3038 11.3999H17.2718C17.8328 11.3999 18.117 11.116 17.9535 10.5559C17.5793 9.37794 15.0503 6.95488 14.9363 6.79288V6.79288Z" fill="var(--social, #180269)"/>
</svg>
