<svg width="39" height="37" viewBox="0 0 39 37" fill="none" xmlns="http://www.w3.org/2000/svg">
<path d="M38.2 14.9623C38 13.735 36.9 12.9168 35.4 12.9168C34.9 12.9168 34.5 12.9168 34 12.9168C33.1 12.8145 32.9 13.1214 32.9 13.8373C32.9 17.4168 32.9 20.8941 32.9 24.4736C32.9 26.3145 31.1 28.2577 29 28.6668C22.4 30.2009 15.8 31.6327 9.19998 33.1668C8.49998 33.3714 7.69999 33.3714 6.89999 33.3714C6.59999 33.3714 6.1 33.1668 6 32.86C5.9 32.6555 6.19999 32.2464 6.39999 32.0418C6.69999 31.8373 7.1 31.6327 7.5 31.4282C8.7 31.0191 9.99998 30.61 11.2 30.2009C16.1 28.5646 21 26.9282 25.9 25.1895C28.1 24.4736 29.3 22.9395 29.3 20.9964C29.4 14.86 29.3 8.62136 29.3 2.485C29.3 1.46227 28.8 0.64409 27.7 0.234999C26.4 -0.276365 25.2 0.13272 24.1 0.644084C17.1 4.01908 10.2 7.39409 3.19998 10.7691C1.19998 11.7918 0 13.2236 0 15.2691C0 21.0986 0 26.9282 0 32.7577C0 33.0646 -2.44155e-05 33.3714 0.0999756 33.5759C0.799975 35.5191 2.6 36.7464 5 36.7464C9.9 36.7464 14.8 36.7464 19.7 36.7464C24.6 36.7464 29.4 36.7464 34.3 36.7464C35.4 36.7464 36.3 36.5418 37.1 35.8259C38.1 35.0077 38.1 33.8827 38.1 32.86C38.1 27.1327 38.1 21.5077 38.1 15.7805C38.3 15.6782 38.3 15.2691 38.2 14.9623ZM17.8 13.1214C18.3 11.7918 19.4 10.9736 21 10.7691C22.1 10.6668 23 11.2805 23.2 12.3032C23.4 13.8373 21.6 15.6782 19.7 15.6782C18.2 15.6782 17.3 14.5532 17.8 13.1214Z" fill="#E47418"/>
</svg>
